<svg width="152" height="35" viewBox="0 0 152 35" fill="none" xmlns="http://www.w3.org/2000/svg">
<path fill-rule="evenodd" clip-rule="evenodd" d="M31.667 0.534863C31.5531 1.29464 30.9503 2.43244 30.3969 2.93242C29.7825 3.48749 28.8498 3.95488 28.1711 4.04797C27.5485 4.13325 27.4034 4.45017 27.9868 4.45017C28.6263 4.45017 29.65 4.92598 30.3117 5.53072C31.0247 6.18237 31.5324 7.10055 31.6629 7.97423C31.783 8.77947 32.0758 8.70261 32.2585 7.81787C32.4384 6.946 32.7888 6.29627 33.4179 5.66711C34.0455 5.0394 34.6966 4.68772 35.5614 4.50911C36.3988 4.33603 36.4623 4.14311 35.7145 4.044C34.8568 3.93022 33.9734 3.43818 33.2961 2.69704C32.6768 2.01942 32.201 1.00249 32.201 0.356255C32.201 0.0873203 32.1454 0 31.9742 0C31.7978 0 31.7293 0.119313 31.667 0.534863ZM8.92492 3.27749C8.82618 3.49242 6.79281 8.70189 4.40643 14.854C2.01994 21.006 0.0391322 26.1072 0.00449308 26.1899C-0.0438574 26.3054 0.288943 26.3402 1.44503 26.3402C2.76504 26.3402 2.95857 26.3145 3.03169 26.1297C3.0774 26.014 3.51856 24.8422 4.01217 23.5257C4.50566 22.2092 4.96343 21.0315 5.02922 20.9085C5.1436 20.6947 5.39618 20.6863 10.7626 20.7162L16.3764 20.7474L17.4148 23.5137L18.4531 26.2801L19.8696 26.3141C21.1788 26.3455 21.2817 26.3319 21.229 26.1337C21.1105 25.6878 12.4284 3.18043 12.3198 3.03694C12.239 2.93038 11.7549 2.8866 10.6551 2.8866H9.10437L8.92492 3.27749ZM23.2642 2.96321C23.2182 3.00928 23.1804 8.28959 23.1804 14.6972V26.3477L24.6538 26.3139L26.1271 26.2801V14.6134V2.94674L24.7376 2.91306C23.9732 2.89454 23.3103 2.91703 23.2642 2.96321ZM37.9341 2.96682C37.89 3.01084 37.8539 8.26084 37.8539 14.6335V26.2199H45.1306H52.4072V24.7766V23.3333H46.5739H40.7405V19.6649V15.9966H45.6718H50.6031V14.5533V13.11H45.6718H40.7405V9.50172V5.89347H46.213H51.6855V4.39003V2.8866H44.85C41.0903 2.8866 37.9782 2.92268 37.9341 2.96682ZM12.8822 12.0651C14.1141 15.162 15.122 17.7463 15.122 17.8083C15.122 17.8762 13.3807 17.921 10.7319 17.921C8.31741 17.921 6.3419 17.8937 6.3419 17.8602C6.3419 17.8142 9.85344 8.21381 10.4501 6.62847C10.5095 6.47055 10.5773 6.3623 10.6004 6.38792C10.6236 6.41366 11.6505 8.96842 12.8822 12.0651ZM147.665 7.39138C147.665 7.50949 147.775 7.57732 147.966 7.57732C148.26 7.57732 148.266 7.59741 148.266 8.47938C148.266 9.189 148.304 9.38144 148.441 9.38144C148.575 9.38144 148.625 9.17649 148.652 8.50945C148.687 7.65285 148.693 7.63674 149.025 7.59873C149.673 7.5244 149.288 7.27748 148.467 7.24103C147.808 7.21181 147.665 7.23875 147.665 7.39138ZM149.675 7.29155C149.628 7.33845 149.589 7.82785 149.589 8.37919C149.589 9.18984 149.624 9.38144 149.77 9.38144C149.911 9.38144 149.95 9.21835 149.95 8.63574C149.95 7.79429 150.053 7.82184 150.378 8.75C150.5 9.09723 150.636 9.38144 150.681 9.38144C150.726 9.38144 150.891 9.04323 151.048 8.62973L151.333 7.87801L151.369 8.62973C151.4 9.28294 151.436 9.38144 151.64 9.38144C151.855 9.38144 151.875 9.29244 151.875 8.29897C151.875 7.28686 151.858 7.2165 151.627 7.2165C151.394 7.2165 151.217 7.50684 150.855 8.47938C150.783 8.67519 150.715 8.58558 150.492 7.99828C150.305 7.50359 150.147 7.26557 149.989 7.24151C149.863 7.22215 149.721 7.24476 149.675 7.29155ZM124.942 9.07546C123.803 9.29196 122.399 9.98522 121.717 10.6668C121.424 10.9592 121.041 11.5067 120.864 11.8836C120.583 12.483 120.543 12.7192 120.543 13.7715C120.543 14.8511 120.577 15.0385 120.874 15.6017C121.679 17.129 122.837 17.8108 126.136 18.6989C129.219 19.529 130.139 20.2234 130.139 21.72C130.139 22.4784 129.763 23.2045 129.151 23.6268C128.233 24.261 126.45 24.4645 124.933 24.1084C124.05 23.9012 123.47 23.5563 122.563 22.6977L121.936 22.1052L120.967 22.9844C120.434 23.468 120.012 23.905 120.03 23.9555C120.048 24.0062 120.387 24.3237 120.783 24.6612C122.801 26.3771 125.052 27.0771 127.712 26.8157C129.905 26.6001 131.395 25.868 132.291 24.5659C133.433 22.9059 133.381 20.1681 132.178 18.5825C131.318 17.4482 130.389 16.9942 127.339 16.2177C124.299 15.4438 123.506 14.9682 123.399 13.8571C123.325 13.0913 123.582 12.5975 124.284 12.1523C125.893 11.1317 128.863 11.5648 130.169 13.0105L130.591 13.4766L131.58 12.6794C132.125 12.241 132.586 11.8397 132.606 11.7879C132.665 11.6307 130.848 10.0632 130.246 9.75261C128.891 9.05273 126.6 8.76034 124.942 9.07546ZM140.014 9.01244C136.236 9.61574 134.272 12.5301 135.608 15.5515C136.24 16.9813 137.565 17.7954 140.615 18.6275C142.606 19.171 143.703 19.6361 144.224 20.1583C144.913 20.8492 145.08 21.787 144.671 22.6718C144.391 23.2787 144.032 23.609 143.273 23.9589C142.749 24.2006 142.492 24.2344 141.23 24.2273C139.346 24.2168 138.72 23.9886 137.553 22.8869L136.724 22.1056L136.331 22.4352C136.115 22.6166 135.646 23.0317 135.289 23.3575L134.639 23.9501L135.098 24.3333C137.374 26.234 138.938 26.8509 141.471 26.8473C143.773 26.844 145.455 26.2581 146.581 25.0675C147.857 23.7181 148.228 21.7005 147.553 19.7791C146.892 17.9 145.63 17.0877 141.955 16.1759C139.874 15.6597 139.095 15.346 138.557 14.8084C137.627 13.878 138.056 12.547 139.486 11.9255C140.242 11.5973 141.08 11.5138 142.12 11.6632C143.287 11.831 143.919 12.124 144.694 12.8567L145.33 13.4589L146.317 12.6728C146.86 12.2404 147.304 11.8462 147.304 11.7969C147.304 11.7476 146.912 11.3286 146.432 10.8656C145.118 9.59746 143.783 9.05971 141.711 8.96409C141.116 8.93667 140.352 8.95832 140.014 9.01244ZM78.8708 9.20849C75.7836 9.8777 73.1718 12.5698 72.3716 15.9072C72.1459 16.8491 72.134 17.3512 72.1331 25.9493L72.1323 35H73.5154H74.8986V29.4499V23.8999L75.63 24.6981C76.1989 25.319 76.5797 25.6033 77.3439 25.9778C78.8157 26.699 79.6312 26.8788 81.3934 26.8707C82.6863 26.8648 83.0317 26.8191 83.8591 26.5449C85.2142 26.0958 86.2353 25.461 87.284 24.4158C89.1885 22.5175 90.037 20.2323 89.8968 17.3797C89.8181 15.7809 89.6071 14.9354 88.954 13.6015C88.3594 12.387 87.0649 11.0168 85.8436 10.3094C83.9207 9.19526 81.0342 8.73954 78.8708 9.20849ZM108.816 9.09507C105.836 9.6689 103.374 11.8575 102.392 14.8046C101.374 17.859 102 21.5643 103.931 23.9178C106.46 27.0003 111.056 27.8884 114.776 26.0138C115.72 25.538 117.228 24.4448 117.233 24.2324C117.234 24.1646 116.833 23.7092 116.341 23.2203L115.446 22.3314L115.005 22.682C113.695 23.7224 112.656 24.1478 111.161 24.2544C110.632 24.2922 109.875 24.2631 109.478 24.1897C108.476 24.0048 107.133 23.3151 106.456 22.6384C105.813 21.9956 105.205 20.8052 105.116 20.0162L105.056 19.4845H111.765H118.473L118.405 17.7105C118.329 15.7338 117.992 14.1258 117.413 12.9852C116.104 10.4014 113.942 9.15653 110.62 9.07438C109.793 9.05393 108.981 9.06331 108.816 9.09507ZM98.516 9.37916C97.443 9.66048 96.5347 10.1098 95.7964 10.7243L95.2251 11.1999V10.2869V9.37387L93.8408 9.40766L92.4566 9.44158L92.4276 17.8909L92.3986 26.3402H93.8118H95.2251V21.2847V16.2292L95.5131 15.6605C96.5772 13.5608 98.5668 12.1478 100.46 12.1478H101.119V10.6443V9.14089L100.247 9.14751C99.767 9.15112 98.9882 9.25539 98.516 9.37916ZM53.8505 9.43966C53.8505 9.47165 55.3276 11.3525 57.1329 13.6192C58.9381 15.8859 60.4574 17.8091 60.5089 17.8929C60.6087 18.0553 60.5926 18.0771 56.5912 23.1827C55.2822 24.853 54.2113 26.2482 54.2113 26.2832C54.2113 26.3183 54.9543 26.3319 55.8622 26.3135L57.5132 26.2801L59.815 23.2732C61.0811 21.6194 62.1731 20.2663 62.2418 20.2663C62.3106 20.2663 63.4092 21.633 64.6833 23.3033L66.9997 26.3402H68.6782H70.3567L70.0603 25.9493C69.8973 25.7343 68.9073 24.3948 67.8603 22.9725C66.8134 21.5503 65.556 19.8559 65.0661 19.2074C64.4519 18.3942 64.2106 17.9836 64.2887 17.8844C65.2412 16.6746 70.4793 9.68141 70.5279 9.55476C70.584 9.40863 70.3134 9.38144 68.8047 9.38144H67.0151L64.6725 12.5657C63.3841 14.317 62.2941 15.7513 62.2505 15.753C62.2067 15.7547 61.1258 14.3217 59.8484 12.5687L57.5259 9.38144H55.6882C54.6775 9.38144 53.8505 9.40766 53.8505 9.43966ZM30.601 9.81888C30.5549 9.86495 30.5172 13.6027 30.5172 18.1251V26.3477L31.9905 26.3139L33.4639 26.2801V18.0412V9.80241L32.0744 9.76873C31.31 9.75021 30.6471 9.7727 30.601 9.81888ZM111.569 12.0348C113.589 12.5004 115.124 14.1604 115.373 16.147L115.459 16.8385H110.257H105.054L105.127 16.2209C105.335 14.4626 106.885 12.6207 108.61 12.0817C109.218 11.8916 110.836 11.8658 111.569 12.0348ZM82.2912 12.2066C84.7017 12.636 86.3281 14.1271 86.792 16.3332C87.1058 17.8247 86.8704 19.973 86.2616 21.1742C85.314 23.0441 83.486 24.055 81.052 24.055C78.9037 24.055 77.1635 23.1521 76.035 21.4518C75.1636 20.139 74.9182 18.4521 75.32 16.5378C76.0307 13.1529 78.6097 11.5506 82.2912 12.2066Z" fill="#37415E"/>
</svg>
