<svg width="10" height="5" viewBox="0 0 10 5" fill="none" xmlns="http://www.w3.org/2000/svg">
<path fill-rule="evenodd" clip-rule="evenodd" d="M0.239089 0.0379912C0.0635358 0.114456 -0.0325153 0.31761 0.0100133 0.522615C0.0262437 0.600903 0.430786 1.02075 2.17542 2.76995C3.42006 4.01789 4.35991 4.93801 4.41393 4.96148C4.53254 5.01306 4.63571 5.01283 4.73454 4.96084C4.82614 4.91264 9.04506 0.695566 9.09914 0.598126C9.18821 0.437703 9.11542 0.175067 8.95228 0.0681663C8.83957 -0.00569467 8.67084 -0.0174399 8.55839 0.0407115C8.50504 0.0683117 7.58538 0.971307 6.51473 2.04737L4.56807 4.00383L2.62179 2.0456C1.55134 0.968587 0.633854 0.0670382 0.582935 0.0421285C0.470856 -0.012638 0.358517 -0.0139979 0.239089 0.0379912Z" fill="#37415E"/>
</svg>
