<svg width="9" height="8" viewBox="0 0 9 8" fill="none" xmlns="http://www.w3.org/2000/svg">
<path d="M7.55162 0.97745C7.6028 0.925225 7.66389 0.883736 7.73131 0.855412C7.79873 0.827089 7.87112 0.8125 7.94424 0.8125C8.01737 0.8125 8.08976 0.827089 8.15718 0.855412C8.22459 0.883736 8.28568 0.925225 8.33687 0.97745C8.55137 1.1942 8.55437 1.54445 8.34437 1.76495L3.90962 7.00745C3.85927 7.06274 3.79817 7.10718 3.73005 7.13804C3.66194 7.16891 3.58824 7.18555 3.51347 7.18695C3.43871 7.18836 3.36444 7.17449 3.29521 7.14621C3.22599 7.11792 3.16326 7.07581 3.11087 7.02245L0.412369 4.28795C0.308297 4.18181 0.25 4.0391 0.25 3.89045C0.25 3.7418 0.308297 3.59909 0.412369 3.49295C0.463553 3.44072 0.524643 3.39924 0.59206 3.37091C0.659478 3.34259 0.731868 3.328 0.804994 3.328C0.878119 3.328 0.95051 3.34259 1.01793 3.37091C1.08535 3.39924 1.14643 3.44072 1.19762 3.49295L3.48662 5.8127L7.53662 0.993951C7.54128 0.988154 7.54629 0.982644 7.55162 0.97745Z" fill="#ABB6BF"/>
</svg>
