<svg width="10" height="10" viewBox="0 0 10 10" fill="none" xmlns="http://www.w3.org/2000/svg">
<path fill-rule="evenodd" clip-rule="evenodd" d="M0.590913 0.592344L0.000216674 1.18471L1.89709 3.0815C2.94039 4.12475 3.79399 4.98807 3.79399 4.99999C3.79399 5.01191 2.94035 5.87536 1.89701 6.91874L0 8.81583L0.592106 9.40763L1.18421 9.99946L3.088 8.08695L4.99179 6.17447L6.89145 8.08723L8.79107 10L9.38179 9.40772L9.97249 8.81544L8.07561 6.91865C7.03232 5.8754 6.17872 5.01204 6.17872 5.00008C6.17872 4.98811 7.03232 4.12475 8.07561 3.0815L9.97249 1.18471L9.38179 0.592583L8.79107 0.000455347L6.89045 1.91463L4.98982 3.82879L3.08573 1.91439L1.18163 0L0.590913 0.592344Z" fill="#37415E"/>
</svg>
