<svg width="12" height="10" viewBox="0 0 12 10" fill="none" xmlns="http://www.w3.org/2000/svg">
<path fill-rule="evenodd" clip-rule="evenodd" d="M11.3948 0.00202614C11.2759 0.0177232 11.0015 0.115556 10.2084 0.42496C10.065 0.480917 9.53107 0.686412 9.02196 0.881608C8.51285 1.07683 7.94963 1.29333 7.77037 1.36274C7.5911 1.43213 7.19216 1.58513 6.88383 1.7027C6.12625 1.99164 5.0394 2.40803 4.64139 2.56184C4.46213 2.63112 4.06905 2.7822 3.76788 2.89758C3.46672 3.01296 2.75683 3.2855 2.19036 3.50322C1.62388 3.72095 1.01183 3.95565 0.830269 4.02474C0.306583 4.22409 0.121191 4.33399 0.0382468 4.4944C-0.0287134 4.62389 -0.0106957 4.69982 0.115689 4.82094C0.244838 4.94466 0.192323 4.92623 2.18384 5.54694L3.1551 5.84967L4.02211 5.30551C4.49894 5.00623 5.33498 4.48199 5.87994 4.14052C6.42491 3.79907 7.16731 3.33353 7.52975 3.10597C9.73208 1.72328 9.63514 1.78082 9.76238 1.78082C9.85362 1.78082 9.91575 1.84893 9.88204 1.91193C9.86754 1.93905 8.69996 3.00139 7.28744 4.27272C5.73719 5.66801 4.71479 6.60639 4.70812 6.64008C4.70204 6.67079 4.66084 7.21221 4.61659 7.84322C4.57234 8.47423 4.52883 9.08321 4.51988 9.19653L4.50359 9.40252L4.61813 9.38422C4.6811 9.37415 4.77959 9.33814 4.83695 9.30419C4.89432 9.27024 5.26693 8.92991 5.66496 8.54789C6.14153 8.09051 6.39975 7.86009 6.42113 7.8731C6.43899 7.88397 6.82907 8.16837 7.28799 8.5051C7.7469 8.84183 8.36222 9.29319 8.65535 9.5081C9.21502 9.91844 9.36513 9.99802 9.58338 9.99997C9.80207 10.0019 9.94446 9.90175 10.0546 9.66846C10.1339 9.50033 10.1338 9.50067 10.6797 6.91756C10.7297 6.68093 10.8114 6.29959 10.8611 6.07013C10.9109 5.84067 11.0633 5.12492 11.1998 4.47957C11.3363 3.83422 11.4887 3.11846 11.5384 2.889C11.8295 1.5461 11.974 0.834778 11.987 0.681067C12.0101 0.408507 11.9036 0.1524 11.7276 0.0569137C11.6654 0.0231729 11.4739 -0.00840379 11.3948 0.00202614Z" fill="white"/>
</svg>
