<svg width="10" height="10" viewBox="0 0 10 10" fill="none" xmlns="http://www.w3.org/2000/svg">
<path fill-rule="evenodd" clip-rule="evenodd" d="M2.1518 0.00952064C1.87466 0.0719428 1.30504 0.601755 0.715951 1.34498C0.437819 1.69591 0.225885 2.00867 0.100786 2.2529C-0.0238036 2.4961 -0.0246605 2.50787 0.0533267 2.91608C0.393255 4.69558 1.81196 6.77117 3.72079 8.2816C4.88353 9.20165 6.16477 9.82066 7.23876 9.98125C7.5564 10.0288 7.6254 10.0051 8.11003 9.68227C8.97041 9.10914 9.87705 8.22344 9.97477 7.86056C10.0157 7.70845 9.9432 7.48906 9.79929 7.32978C9.55831 7.06306 8.21724 6.2217 7.64113 5.97581C7.11025 5.74921 6.94971 5.80244 6.46662 6.36532C6.32359 6.532 6.19131 6.68096 6.17267 6.69636C6.14543 6.71887 6.09079 6.70479 5.89317 6.62423C5.04101 6.27696 4.31962 5.686 3.79578 4.9061C3.62336 4.64942 3.36802 4.12994 3.29418 3.88562C3.28151 3.84375 3.32529 3.79647 3.57662 3.58065C3.93124 3.27616 4.03438 3.16588 4.09801 3.02313C4.15793 2.88879 4.15711 2.7437 4.09543 2.55278C3.96119 2.1372 3.52979 1.37843 2.94701 0.532825C2.73055 0.218768 2.65551 0.143491 2.48161 0.0660365C2.33965 0.00280365 2.24989 -0.0125761 2.1518 0.00952064Z" fill="#37415E"/>
</svg>
