<svg width="17" height="10" viewBox="0 0 17 10" fill="none" xmlns="http://www.w3.org/2000/svg">
<path fill-rule="evenodd" clip-rule="evenodd" d="M6.81867 0.0142858C6.52724 0.037487 6.20972 0.0894962 6.04043 0.141777C5.88332 0.190314 5.68714 0.332554 5.55795 0.491616C5.43061 0.648397 5.44027 0.682205 5.62618 0.730365C5.93139 0.809446 6.16426 0.961142 6.27414 1.15242C6.34843 1.2818 6.43715 1.67655 6.47255 2.03528C6.53487 2.66705 6.52381 3.19595 6.43119 4.01111C6.37489 4.5066 6.26849 4.78834 6.10882 4.86462C6.00256 4.91537 5.84668 4.90472 5.73459 4.83903C5.4013 4.64372 4.96619 4.05145 4.58712 3.2771C4.50543 3.11026 4.32302 2.73839 4.18174 2.45073C3.88638 1.84936 3.68305 1.40132 3.55252 1.0642C3.39288 0.651912 3.36815 0.62051 3.10521 0.496198L2.96923 0.431908L1.95457 0.433519C0.626281 0.435632 0.323619 0.449293 0.192006 0.512997C0.0457272 0.583814 -0.00188872 0.662309 5.6919e-05 0.829362C0.00150046 0.952753 0.0201829 1.00897 0.201755 1.43607C0.532807 2.21472 0.787225 2.76609 1.19129 3.58046C1.74262 4.69165 2.00386 5.15889 2.52131 5.95932C3.2113 7.02666 3.7952 7.8049 4.18467 8.17624C4.31643 8.30187 4.85334 8.76046 5.02993 8.89818C5.5862 9.332 6.43661 9.72535 7.17432 9.89004C7.36704 9.93307 7.44945 9.93745 8.22036 9.94542C9.12193 9.95473 9.23946 9.94561 9.39762 9.85391C9.57131 9.75324 9.65231 9.53526 9.65313 9.16632C9.65401 8.78029 9.7425 8.32066 9.8634 8.07419C9.9333 7.93172 10.1195 7.73419 10.236 7.67889C10.4777 7.5642 10.8479 7.82099 11.3699 8.46548C12.2105 9.5033 12.5626 9.80615 13.0998 9.95353C13.1866 9.97734 13.3152 9.99803 13.3855 9.99948C13.7114 10.0062 15.8507 9.94688 15.9704 9.92782C16.1069 9.90611 16.2807 9.83445 16.3602 9.76717C16.4781 9.66727 16.508 9.53397 16.4755 9.25317C16.4513 9.04327 16.3886 8.90841 16.1452 8.54182C15.8489 8.09572 15.4836 7.67525 14.6467 6.81708C14.0338 6.18855 13.9032 6.02949 13.8483 5.84447C13.754 5.52695 13.8736 5.25205 14.4621 4.43329C15.5695 2.89287 16.0018 2.23165 16.2762 1.65839C16.4341 1.32849 16.4978 1.12531 16.5099 0.913046L16.52 0.735218L16.4448 0.637455C16.3882 0.563856 16.3398 0.527872 16.249 0.491951C16.1079 0.436134 16.2297 0.438749 14.3188 0.450506C12.837 0.459628 12.841 0.459272 12.731 0.592789C12.6948 0.636618 12.604 0.829948 12.5173 1.04734C12.0796 2.1456 11.6273 3.03224 11.0812 3.86282C10.8112 4.27344 10.6726 4.45122 10.4774 4.63736C10.2767 4.82876 10.1854 4.87688 10.0566 4.85922C9.90133 4.83792 9.79453 4.7238 9.71922 4.49859C9.64231 4.26863 9.62997 3.92253 9.65631 2.73316C9.68646 1.37113 9.68675 1.2232 9.65991 0.868107C9.63549 0.545299 9.60233 0.450193 9.46474 0.308412C9.32235 0.161694 9.16136 0.102551 8.73954 0.0420266C8.4725 0.00372054 7.18533 -0.0148779 6.81867 0.0142858Z" fill="white"/>
</svg>
