<svg width="8" height="15" viewBox="0 0 8 15" fill="none" xmlns="http://www.w3.org/2000/svg">
<path fill-rule="evenodd" clip-rule="evenodd" d="M5.14594 0.057856C4.68894 0.136128 4.46058 0.204592 4.14243 0.358766C3.22119 0.805178 2.68001 1.51609 2.44129 2.59336C2.38105 2.86526 2.37095 3.05516 2.35634 4.19291L2.33978 5.48391H1.16989H0V6.81551V8.14712H1.17334H2.34668V11.5736V15H3.77146H5.19623V11.5736V8.14712H6.36806H7.53986L7.55897 8.04156C7.58411 7.90262 7.84416 5.911 7.86853 5.67066L7.88747 5.48391H6.5398H5.19217L5.20307 4.38777C5.21363 3.32567 5.21641 3.28573 5.29271 3.10128C5.39124 2.86309 5.57773 2.684 5.82735 2.5879C6.00644 2.51892 6.07493 2.51395 6.99815 2.50271L7.97872 2.49079V1.29586V0.100922L7.75244 0.0797787C6.70826 -0.0177856 5.64005 -0.026782 5.14594 0.057856Z" fill="white"/>
</svg>
