<svg width="12" height="12" viewBox="0 0 12 12" fill="none" xmlns="http://www.w3.org/2000/svg">
<path fill-rule="evenodd" clip-rule="evenodd" d="M2.79237 0.0379427C1.43276 0.240655 0.349604 1.26432 0.0587564 2.62147L0 2.89559V5.99966V9.10373L0.0587564 9.37785C0.324694 10.6187 1.29426 11.6248 2.49365 11.9045C2.88102 11.9948 3.06851 12 5.96138 12C8.85424 12 9.04174 11.9948 9.42911 11.9045C10.6285 11.6248 11.5981 10.6187 11.864 9.37785L11.9228 9.10373V5.99966V2.89559L11.864 2.62147C11.6251 1.50673 10.8405 0.596961 9.77409 0.198237C9.57127 0.122389 9.30913 0.0604895 9.0441 0.0258641C8.72894 -0.015307 3.0763 -0.00439742 2.79237 0.0379427ZM9.79679 1.58832C10.37 1.7996 10.6008 2.52094 10.2637 3.04791C10.0625 3.36239 9.72422 3.52952 9.34957 3.49944C8.79406 3.45484 8.36972 2.91738 8.45651 2.36833C8.55688 1.73334 9.19024 1.36475 9.79679 1.58832ZM9.23629 2.31314C9.09774 2.45169 9.13519 2.67417 9.3125 2.76586C9.40737 2.81491 9.4522 2.81465 9.55821 2.76433C9.83503 2.63297 9.73788 2.23321 9.42911 2.23321C9.33767 2.23321 9.30102 2.24841 9.23629 2.31314ZM6.33802 2.74012C6.59822 2.76181 6.84493 2.82236 7.14667 2.93858C8.39144 3.41795 9.23429 4.65384 9.23429 5.99966C9.23429 7.34548 8.39144 8.58136 7.14667 9.06074C6.67433 9.24267 6.20718 9.30954 5.69053 9.26922C5.34506 9.24226 5.10569 9.18768 4.77609 9.06074C3.53132 8.58136 2.68846 7.34548 2.68846 5.99966C2.68846 4.30099 4.00184 2.86551 5.68193 2.72791C5.91797 2.70856 5.97172 2.70958 6.33802 2.74012ZM5.41498 3.47853C4.25998 3.72228 3.3898 4.80556 3.3898 5.99966C3.3898 7.21347 4.28604 8.3067 5.46421 8.53006C5.91145 8.61485 6.46907 8.56869 6.87052 8.41364C7.85775 8.03237 8.53295 7.05193 8.53295 5.99966C8.53295 4.78541 7.63716 3.6927 6.45855 3.46925C6.16905 3.41437 5.69918 3.41855 5.41498 3.47853Z" fill="white"/>
</svg>
