<svg width="20" height="22" viewBox="0 0 20 22" fill="none" xmlns="http://www.w3.org/2000/svg">
<path fill-rule="evenodd" clip-rule="evenodd" d="M16.5926 15.3829C16.4506 14.6519 16.0716 13.9889 15.5126 13.4969C15.3186 13.3089 15.0986 13.1499 14.8596 13.0259C14.7376 12.9549 14.6096 12.8949 14.4776 12.8459C14.1366 12.6999 13.7656 12.6389 13.3966 12.6679C13.6846 12.5639 13.9916 12.5249 14.2966 12.5539C14.5566 12.5909 14.8116 12.6509 15.0606 12.7339C15.2606 12.8449 15.4676 12.9569 15.6686 13.0709C16.1146 11.4929 16.0276 9.81189 15.4216 8.28789C14.9326 6.99389 14.1376 5.83889 13.1036 4.91989C12.0546 3.93889 10.7526 3.26989 9.3446 2.98889C8.5256 2.82989 7.6836 2.83789 6.8676 3.01189C6.1766 3.19289 5.52761 3.50489 4.95461 3.93089C4.42361 4.35689 3.9746 4.87389 3.6266 5.45889C3.5236 5.60089 3.4336 5.7509 3.3566 5.9079C3.2876 6.0779 3.20961 6.24089 3.13161 6.40189C2.70161 7.56289 2.5646 8.81289 2.7316 10.0399C2.8306 10.8049 3.0346 11.5539 3.3396 12.2629C3.5036 12.5779 3.6526 12.9079 3.8336 13.2049C4.0136 13.4929 4.2086 13.7709 4.4196 14.0369C4.8686 14.5369 5.3746 14.9809 5.9276 15.3619C7.1946 16.2199 8.6756 16.7099 10.2046 16.7759C10.2056 16.6669 10.1826 16.5599 10.1366 16.4619C10.1096 16.3539 10.0996 16.2299 10.0686 16.1249C10.0396 15.8709 10.0396 15.6149 10.0686 15.3619C10.1216 15.4009 10.1616 15.4559 10.1816 15.5189C10.2076 15.5719 10.2466 15.6179 10.2946 15.6529C10.3536 15.7629 10.4206 15.8679 10.4946 15.9679C10.6436 16.1619 10.8186 16.3349 11.0126 16.4839C11.3996 16.8009 11.8316 17.0579 12.2956 17.2469C12.8186 17.4669 13.3736 17.6019 13.9396 17.6469C14.5396 17.7279 15.1206 17.8299 15.6716 17.9609C16.1736 18.1059 16.6576 18.3089 17.1126 18.5669C17.3306 18.6869 17.5416 18.8209 17.7426 18.9669C17.8486 19.0309 17.9466 19.1059 18.0356 19.1919C18.1536 19.2389 18.2056 19.3509 18.3276 19.3919C18.6846 19.7179 19.0166 20.0709 19.3196 20.4479C19.4636 20.6549 19.5916 20.8729 19.7016 21.0999C19.7836 21.1899 19.8076 21.3379 19.8816 21.4369C19.9126 21.4949 19.9306 21.5599 19.9336 21.6259C19.9376 21.6909 19.9276 21.7569 19.9036 21.8189C19.7366 21.8429 19.7706 21.6669 19.7036 21.5939C19.6406 21.5109 19.5876 21.4199 19.5456 21.3249C19.2816 21.0479 19.0456 20.7449 18.7576 20.4939C18.4796 20.2329 18.1786 19.9989 17.8576 19.7939C17.1886 19.3269 16.4416 18.9849 15.6516 18.7829C14.7216 18.5279 13.7546 18.4369 12.7936 18.5129C12.3416 18.5629 11.8956 18.6609 11.4646 18.8049C11.0116 18.9049 10.5526 18.9799 10.0916 19.0299C8.2826 19.1219 6.4776 18.7839 4.8246 18.0419C4.1096 17.7249 3.4426 17.3099 2.8436 16.8069C2.5426 16.5709 2.2636 16.3079 2.0116 16.0209C1.7536 15.7399 1.5266 15.4309 1.3356 15.0999C1.1176 14.7689 0.922611 14.4239 0.750611 14.0669C0.588611 13.6799 0.453597 13.2819 0.345597 12.8769C0.203597 12.4399 0.113608 11.9879 0.0756075 11.5299C0.0676075 11.3949 0.00659912 11.1349 0.00759912 10.9239C0.0175991 10.9019 0.0256094 10.8789 0.0306094 10.8559C-0.00239062 10.6399 -0.00239062 10.4209 0.0306094 10.2049C0.0336094 9.72889 0.086607 9.25489 0.187607 8.78989C0.267607 8.36189 0.380605 7.94189 0.525604 7.53189C0.659604 7.13189 0.836605 6.76589 0.997605 6.38789C1.1066 6.22589 1.1886 6.03889 1.2906 5.87189C1.3766 5.69489 1.5056 5.56189 1.5836 5.37189C1.6486 5.30089 1.70861 5.22589 1.76361 5.14789C1.79861 5.04789 1.89161 5.00589 1.92061 4.90089C1.99461 4.83789 2.0556 4.76189 2.1006 4.67589C2.1756 4.61489 2.23661 4.53789 2.28061 4.45189C2.54961 4.18789 2.7896 3.89589 3.0686 3.64389C3.3476 3.39189 3.6596 3.15489 3.9476 2.90289C4.1296 2.81589 4.26161 2.67789 4.44161 2.58789C4.57861 2.46289 4.7786 2.39989 4.9146 2.27389C5.2716 2.08189 5.6386 1.9099 6.0146 1.7569C6.3946 1.5869 6.78561 1.44489 7.18561 1.33089C8.10161 1.07889 9.0496 0.964896 9.9986 0.993896C10.0376 0.993896 10.0566 0.954896 10.0656 0.993896C11.7766 1.0199 13.4436 1.5409 14.8656 2.4939C16.1206 3.3289 17.1306 4.48389 17.7916 5.83989C18.5686 7.46689 18.8286 9.2929 18.5346 11.0719C18.3416 12.2879 17.8966 13.4509 17.2286 14.4849C17.1396 14.6519 17.0336 14.8099 16.9136 14.9569C16.8726 15.0389 16.8196 15.1139 16.7566 15.1809C16.7296 15.2209 16.6986 15.2579 16.6666 15.2939C16.6636 15.3049 16.6576 15.3139 16.6496 15.3219C16.6416 15.3299 16.6326 15.3359 16.6216 15.3389C16.6216 15.3999 16.5996 15.4079 16.5926 15.3829ZM16.0536 15.9679C15.8316 15.8049 15.6786 15.5639 15.6246 15.2939C15.5946 15.1909 15.5946 15.0819 15.6246 14.9799C15.6386 14.9699 15.6536 14.9619 15.6696 14.9569C15.7076 14.9469 15.7486 14.9449 15.7876 14.9529C15.8266 14.9609 15.8626 14.9779 15.8946 15.0019C16.0266 15.1659 16.1186 15.3579 16.1656 15.5629C16.1886 15.6339 16.1906 15.7099 16.1706 15.7819C16.1506 15.8539 16.1096 15.9189 16.0536 15.9679ZM14.0726 15.5859C14.0726 15.5609 14.0946 15.5729 14.0946 15.5859C14.2736 15.6039 14.4376 15.6929 14.5506 15.8309C14.6646 15.9699 14.7196 16.1479 14.7026 16.3269C14.6936 16.4299 14.6516 16.5269 14.5826 16.6039C14.5136 16.6809 14.4206 16.7329 14.3196 16.7529C14.2006 16.7579 14.0826 16.7319 13.9766 16.6769C13.8706 16.6229 13.7806 16.5419 13.7156 16.4429C13.6496 16.3439 13.6106 16.2299 13.6016 16.1109C13.5936 15.9919 13.6156 15.8729 13.6666 15.7659C13.7136 15.7039 13.7756 15.6549 13.8466 15.6239C13.9176 15.5919 13.9956 15.5789 14.0726 15.5859Z" fill="#F78300"/>
</svg>
