<svg width="16" height="20" viewBox="0 0 16 20" fill="none" xmlns="http://www.w3.org/2000/svg">
<path fill-rule="evenodd" clip-rule="evenodd" d="M14.014 19.9998H1C0.7348 19.9998 0.4804 19.8948 0.2929 19.7068C0.1054 19.5198 0 19.2648 0 18.9998V9.97385C0.0006 9.83485 0.0302964 9.69885 0.0871964 9.57185C0.143996 9.44585 0.226702 9.33284 0.330002 9.24084L0.371002 8.93385L10.225 0.964844H10.977V8.97385H15.014V19.9998H14.014Z" fill="#FFCF06"/>
<path fill-rule="evenodd" clip-rule="evenodd" d="M10.988 8.97754H12.988V15.4905L1.49805 19.2475L10.984 13.2355V8.97754H10.988Z" fill="#D3AC06"/>
<path d="M7.45325 10.7825C8.16925 10.7825 8.75025 10.2015 8.75025 9.48547C8.75025 8.76947 8.16925 8.18848 7.45325 8.18848C6.73695 8.18848 6.15625 8.76947 6.15625 9.48547C6.15625 10.2015 6.73695 10.7825 7.45325 10.7825Z" fill="#231F20"/>
</svg>
