<svg width="15" height="18" viewBox="0 0 15 18" fill="none" xmlns="http://www.w3.org/2000/svg">
<path fill-rule="evenodd" clip-rule="evenodd" d="M12.8734 13.2702L10.8535 14.0042C10.7885 14.0262 10.7185 14.0232 10.6565 13.9942C10.5935 13.9652 10.5454 13.9142 10.5204 13.8502L9.47345 11.0182H4.57346L3.52945 13.8442C3.50445 13.9082 3.45644 13.9602 3.39444 13.9892C3.33244 14.0182 3.26245 14.0212 3.19745 13.9992L1.18045 13.2652C1.14845 13.2552 1.11944 13.2392 1.09344 13.2172C1.06844 13.1962 1.04744 13.1692 1.03244 13.1402C1.01744 13.1102 1.00844 13.0772 1.00644 13.0442C1.00444 13.0112 1.00844 12.9782 1.01944 12.9462L5.09744 2.24619C5.26144 1.87319 5.53047 1.55618 5.87247 1.33318C6.21347 1.11118 6.61244 0.992188 7.01944 0.992188C7.42644 0.992188 7.82544 1.11118 8.16644 1.33318C8.50844 1.55618 8.77747 1.87319 8.94147 2.24619L13.0345 12.9522C13.0455 12.9842 13.0495 13.0172 13.0475 13.0502C13.0455 13.0832 13.0365 13.1162 13.0215 13.1452C13.0065 13.1752 12.9854 13.2012 12.9604 13.2232C12.9344 13.2442 12.9054 13.2602 12.8734 13.2702ZM7.34344 4.94618L7.02246 4.04619V4.03918L5.17746 9.00218H8.86945L7.34344 4.94618ZM1.01846 16.0022H13.0504C13.3064 16.0102 13.5484 16.1182 13.7264 16.3012C13.9044 16.4852 14.0045 16.7312 14.0045 16.9872C14.0045 17.2422 13.9044 17.4882 13.7264 17.6722C13.5484 17.8562 13.3064 17.9632 13.0504 17.9712H1.01846C0.762463 17.9632 0.520468 17.8562 0.342468 17.6722C0.164468 17.4882 0.0644531 17.2422 0.0644531 16.9872C0.0644531 16.7312 0.164468 16.4852 0.342468 16.3012C0.520468 16.1182 0.762463 16.0102 1.01846 16.0022Z" fill="#37415E" fill-opacity="0.5"/>
</svg>
