<svg width="14" height="17" viewBox="0 0 14 17" fill="none" xmlns="http://www.w3.org/2000/svg">
<path fill-rule="evenodd" clip-rule="evenodd" d="M12.864 12.293L10.836 13.028C10.771 13.05 10.7 13.047 10.637 13.018C10.575 12.989 10.526 12.938 10.501 12.874L9.45001 10.038H4.52802L3.48001 12.868C3.45501 12.932 3.40699 12.984 3.34399 13.013C3.28199 13.041 3.211 13.045 3.146 13.023L1.12 12.288C1.089 12.278 1.05899 12.262 1.03299 12.24C1.00799 12.219 0.986985 12.192 0.971985 12.163C0.956985 12.133 0.948014 12.1 0.946014 12.067C0.943014 12.034 0.948015 12 0.959015 11.969L5.05499 1.255C5.21899 0.882005 5.49001 0.564995 5.83301 0.341995C6.17501 0.118995 6.57599 0 6.98499 0C7.39399 0 7.79499 0.118995 8.13699 0.341995C8.47999 0.564995 8.75001 0.882005 8.91501 1.255L13.026 11.975C13.037 12.006 13.042 12.04 13.039 12.073C13.037 12.106 13.028 12.138 13.013 12.168C12.998 12.198 12.977 12.224 12.952 12.246C12.926 12.267 12.896 12.283 12.864 12.293ZM7.31 3.959L6.98801 3.058V3.05099L5.13501 8.02H8.84299L7.31 3.959ZM0.958008 15.029H13.042C13.299 15.037 13.543 15.144 13.721 15.328C13.9 15.512 14 15.758 14 16.014C14 16.27 13.9 16.516 13.721 16.7C13.543 16.884 13.299 16.992 13.042 17H0.958008C0.701008 16.992 0.456992 16.884 0.278992 16.7C0.0999917 16.516 0 16.27 0 16.014C0 15.758 0.0999917 15.512 0.278992 15.328C0.456992 15.144 0.701008 15.037 0.958008 15.029Z" fill="#FC0018"/>
</svg>
