<svg width="33" height="12" viewBox="0 0 33 12" fill="none" xmlns="http://www.w3.org/2000/svg">
<path fill-rule="evenodd" clip-rule="evenodd" d="M30.1076 11.0001C30.1076 11.0001 29.8776 9.60015 29.8006 9.24815H26.4826C26.3906 9.52315 25.9316 11.0001 25.9316 11.0001H23.2246L27.0636 1.84414C27.159 1.57214 27.3443 1.34015 27.589 1.18815C27.8337 1.03515 28.1232 0.970143 28.4096 1.00414H30.4096L32.5096 11.0041H30.1096L30.1076 11.0001ZM28.7766 4.55915L28.5926 3.70515C28.4706 4.08615 28.2406 4.68215 28.2566 4.66615C28.2566 4.66615 27.4306 6.87814 27.2316 7.45814H29.3726C29.2656 6.95514 28.7766 4.55915 28.7766 4.55915ZM23.2086 3.30915C22.6039 3.03615 21.9447 2.90515 21.2816 2.92715C20.2566 2.92715 19.7976 3.35415 19.7816 3.78115C19.7816 4.25515 20.3326 4.55914 21.2496 5.01714C22.7336 5.71714 23.4216 6.58915 23.4066 7.73315C23.3916 9.79215 21.6326 11.1331 18.9066 11.1331C17.9234 11.1361 16.9484 10.9552 16.0316 10.6002L16.3826 8.35714L16.7346 8.52514C17.4857 8.89414 18.3147 9.07815 19.1516 9.05915C19.487 9.12415 19.8348 9.06014 20.1245 8.87914C20.4142 8.69714 20.624 8.41215 20.7116 8.08215C20.7116 7.64015 20.3756 7.31914 19.3656 6.83114C18.3866 6.35914 17.0866 5.56614 17.1016 4.13114C17.1176 2.19414 18.9066 0.831139 21.4616 0.831139C22.255 0.827139 23.0427 0.966149 23.7866 1.24215L23.4346 3.40914L23.2086 3.30915ZM11.8286 11.0001L13.4506 1.00014H16.0356L14.4146 11.0001H11.8286ZM5.60364 11.0001L3.29864 2.32914C3.22064 2.28314 3.13764 2.24115 3.05664 2.19715H4.59964L5.16964 2.59715L6.21564 4.19715L6.65964 5.42315L6.85964 6.43615L7.13564 7.80915L9.67264 1.00014H12.4106L8.34164 11.0001H5.59964H5.60364Z" fill="#1470B0"/>
<path fill-rule="evenodd" clip-rule="evenodd" d="M4.43484 3.49428C4.12354 3.25028 3.78854 3.03827 3.43484 2.86127L3.28784 2.30728C2.55754 1.87728 1.77744 1.53828 0.964844 1.29828V0.988281H4.93584C5.17394 0.989281 5.40454 1.07127 5.58924 1.22127C5.77404 1.37127 5.90164 1.58028 5.95084 1.81328L6.81084 6.22028C6.17764 5.18428 5.37444 4.26328 4.43484 3.49428Z" fill="#FFB927"/>
</svg>
