<svg width="20" height="21" viewBox="0 0 20 21" fill="none" xmlns="http://www.w3.org/2000/svg">
<path fill-rule="evenodd" clip-rule="evenodd" d="M16.5867 14.4063C16.4447 13.6753 16.0657 13.0123 15.5067 12.5203C15.3127 12.3323 15.0927 12.1743 14.8537 12.0493C14.7317 11.9783 14.6037 11.9183 14.4717 11.8693C14.1307 11.7233 13.7597 11.6623 13.3907 11.6913C13.6787 11.5873 13.9857 11.5483 14.2907 11.5773C14.5507 11.6143 14.8057 11.6743 15.0547 11.7573C15.2547 11.8683 15.4618 11.9803 15.6628 12.0943C16.1087 10.5163 16.0217 8.83532 15.4157 7.31132C14.9267 6.01832 14.1317 4.86233 13.0977 3.94333C12.0487 2.96233 10.7467 2.29333 9.33875 2.01233C8.51974 1.85333 7.67774 1.86132 6.86174 2.03532C6.17074 2.21632 5.52175 2.52833 4.94875 2.95433C4.41775 3.38033 3.96874 3.89733 3.62074 4.48233C3.51774 4.62433 3.42774 4.77433 3.35074 4.93133C3.28174 5.10134 3.20375 5.26432 3.12575 5.42532C2.69575 6.58732 2.55874 7.83634 2.72574 9.06334C2.82474 9.82934 3.02874 10.5773 3.33374 11.2863C3.49774 11.6013 3.64674 11.9313 3.82774 12.2283C4.00774 12.5163 4.20274 12.7943 4.41374 13.0603C4.86274 13.5603 5.36874 14.0053 5.92174 14.3853C7.18874 15.2433 8.66975 15.7333 10.1987 15.7993C10.1997 15.6913 10.1767 15.5833 10.1307 15.4853C10.1037 15.3773 10.0937 15.2533 10.0627 15.1483C10.0337 14.8953 10.0337 14.6393 10.0627 14.3853C10.1157 14.4243 10.1558 14.4793 10.1758 14.5423C10.2018 14.5963 10.2407 14.6423 10.2887 14.6763C10.3477 14.7863 10.4147 14.8913 10.4887 14.9913C10.6387 15.1853 10.8127 15.3583 11.0067 15.5073C11.3947 15.8233 11.8267 16.0813 12.2897 16.2703C12.8127 16.4903 13.3677 16.6253 13.9337 16.6703C14.5337 16.7513 15.1147 16.8533 15.6657 16.9843C16.1677 17.1293 16.6518 17.3323 17.1068 17.5903C17.3248 17.7103 17.5357 17.8443 17.7367 17.9903C17.8427 18.0543 17.9407 18.1293 18.0297 18.2153C18.1477 18.2623 18.1997 18.3743 18.3217 18.4153C18.6787 18.7413 19.0108 19.0943 19.3138 19.4713C19.4578 19.6783 19.5857 19.8963 19.6957 20.1233C19.7777 20.2133 19.8017 20.3613 19.8757 20.4603C19.9067 20.5183 19.9247 20.5833 19.9277 20.6493C19.9317 20.7153 19.9218 20.7803 19.8978 20.8423C19.7308 20.8663 19.7647 20.6903 19.6977 20.6173C19.6347 20.5343 19.5817 20.4443 19.5397 20.3483C19.2757 20.0713 19.0397 19.7683 18.7517 19.5173C18.4737 19.2563 18.1727 19.0223 17.8517 18.8173C17.1827 18.3503 16.4357 18.0083 15.6457 17.8063C14.7157 17.5513 13.7488 17.4603 12.7878 17.5363C12.3358 17.5863 11.8897 17.6843 11.4587 17.8283C11.0057 17.9283 10.5467 18.0033 10.0857 18.0533C8.27674 18.1463 6.47074 17.8073 4.81874 17.0653C4.10374 16.7483 3.43674 16.3333 2.83774 15.8303C2.53674 15.5943 2.25774 15.3313 2.00574 15.0443C1.74774 14.7633 1.52074 14.4543 1.32974 14.1233C1.11174 13.7923 0.916751 13.4473 0.744751 13.0903C0.582751 12.7033 0.447737 12.3053 0.339737 11.9003C0.197737 11.4633 0.107748 11.0113 0.0697482 10.5533C0.0617482 10.4183 0.000739746 10.1583 0.00173975 9.94734C0.0117397 9.92534 0.01975 9.90232 0.02475 9.87932C-0.00825 9.66332 -0.00825 9.44432 0.02475 9.22832C0.02775 8.75232 0.0807477 8.27834 0.181748 7.81334C0.260748 7.38534 0.373745 6.96533 0.519745 6.55533C0.653745 6.15533 0.830745 5.78933 0.991745 5.41133C1.10075 5.24933 1.18274 5.06232 1.28474 4.89532C1.37074 4.71832 1.49974 4.58532 1.57774 4.39532C1.64274 4.32432 1.70275 4.25033 1.75775 4.17133C1.79275 4.07133 1.88575 4.02933 1.91475 3.92433C1.98875 3.86133 2.04974 3.78532 2.09474 3.69932C2.16974 3.63832 2.23075 3.56133 2.27475 3.47533C2.54375 3.21133 2.78374 2.91933 3.06274 2.66733C3.34174 2.41533 3.65374 2.17833 3.94174 1.92633C4.12374 1.83933 4.25575 1.70133 4.43575 1.61133C4.57275 1.48633 4.77274 1.42333 4.90874 1.29733C5.26574 1.10533 5.63274 0.933334 6.00874 0.780334C6.38874 0.610334 6.77975 0.468324 7.17975 0.354324C8.09575 0.102324 9.04374 -0.0116667 9.99274 0.0173333C10.0317 0.0173333 10.0507 -0.0216667 10.0597 0.0173333C11.7707 0.0433333 13.4377 0.564333 14.8597 1.51733C16.1147 2.35233 17.1248 3.50733 17.7858 4.86333C18.5628 6.49033 18.8227 8.31632 18.5287 10.0953C18.3357 11.3113 17.8907 12.4743 17.2227 13.5083C17.1337 13.6753 17.0277 13.8343 16.9077 13.9803C16.8667 14.0623 16.8137 14.1373 16.7507 14.2043C16.7237 14.2443 16.6928 14.2813 16.6608 14.3173C16.6578 14.3283 16.6517 14.3373 16.6437 14.3453C16.6357 14.3533 16.6267 14.3593 16.6157 14.3623C16.6157 14.4233 16.5937 14.4313 16.5867 14.4063ZM16.0477 14.9913C15.8257 14.8283 15.6727 14.5873 15.6187 14.3173C15.5887 14.2153 15.5887 14.1063 15.6187 14.0033C15.6327 13.9933 15.6477 13.9853 15.6637 13.9803C15.7017 13.9703 15.7427 13.9683 15.7817 13.9763C15.8207 13.9843 15.8567 14.0013 15.8887 14.0253C16.0207 14.1893 16.1127 14.3813 16.1597 14.5863C16.1827 14.6573 16.1847 14.7333 16.1647 14.8053C16.1447 14.8773 16.1037 14.9423 16.0477 14.9913ZM14.0667 14.6093C14.0667 14.5843 14.0887 14.5963 14.0887 14.6093C14.2677 14.6273 14.4317 14.7163 14.5447 14.8543C14.6587 14.9933 14.7137 15.1713 14.6967 15.3503C14.6877 15.4533 14.6457 15.5503 14.5767 15.6273C14.5077 15.7043 14.4148 15.7563 14.3138 15.7763C14.1948 15.7813 14.0767 15.7553 13.9707 15.7003C13.8647 15.6463 13.7747 15.5663 13.7097 15.4663C13.6437 15.3673 13.6047 15.2533 13.5957 15.1343C13.5877 15.0153 13.6098 14.8973 13.6608 14.7893C13.7078 14.7273 13.7697 14.6783 13.8407 14.6473C13.9117 14.6153 13.9897 14.6023 14.0667 14.6093Z" fill="#37415E" fill-opacity="0.5"/>
</svg>
