<svg width="60" height="60" viewBox="0 0 60 60" fill="none" xmlns="http://www.w3.org/2000/svg">
<path fill-rule="evenodd" clip-rule="evenodd" d="M0 30V60H30H60V30V0H30H0V30ZM18.4853 18.0804C18.6359 18.4619 19.3738 20.3782 20.5924 23.5523C20.9076 24.3731 21.3523 25.5268 21.5809 26.1161C21.8094 26.7054 22.1372 27.5577 22.3094 28.0102C22.6012 28.777 22.8218 29.349 23.1876 30.287C23.2697 30.4974 23.641 31.4617 24.0127 32.4298C24.3844 33.398 24.7816 34.4277 24.8953 34.7182C25.009 35.0087 25.102 35.2541 25.102 35.2635C25.102 35.2729 24.3632 35.2806 23.4602 35.2806H21.8184L21.7617 35.118C21.7304 35.0286 21.4634 34.2752 21.1683 33.4439C20.8731 32.6126 20.5311 31.6442 20.4083 31.292L20.1849 30.6515L16.6984 30.651L13.2119 30.6505L13.1519 30.8131C13.0591 31.0646 12.3327 33.1179 11.9337 34.2564L11.5753 35.2793L9.99425 35.28L8.4132 35.2806L8.4398 35.1945C8.45445 35.1472 8.74048 34.3938 9.07546 33.5204C9.84425 31.5159 10.3583 30.175 10.9899 28.5268C11.2642 27.8112 11.5622 27.0364 11.6523 26.8048C11.7424 26.5733 12.0926 25.6607 12.4307 24.7768C12.7688 23.8929 13.1941 22.7822 13.376 22.3087C13.5579 21.8351 14.0169 20.6384 14.396 19.6492C14.7752 18.6601 15.0931 17.8377 15.1026 17.8216C15.1121 17.8057 15.8533 17.797 16.7497 17.8025L18.3796 17.8125L18.4853 18.0804ZM16.6646 20.8833C16.6496 20.9201 16.5978 21.0622 16.5495 21.199C15.9626 22.8609 15.2074 25.0042 14.999 25.5995C14.5122 26.9897 14.091 28.1821 14.0631 28.2494C14.0367 28.3128 14.1771 28.3163 16.7028 28.3163C19.0636 28.3163 19.3679 28.3097 19.3483 28.2587C19.3361 28.227 19.1689 27.7491 18.9766 27.1968C18.7844 26.6445 18.4469 25.676 18.2266 25.0446C18.0063 24.4133 17.7002 23.5351 17.5465 23.0931C16.8833 21.1869 16.749 20.8163 16.7213 20.8163C16.7051 20.8163 16.6796 20.8465 16.6646 20.8833ZM33.7022 22.33L33.7883 22.3559V23.6959V25.036L33.5682 25.01C32.8739 24.9279 32.5691 24.9137 32.256 24.9492C30.5049 25.1475 29.3536 26.5771 29.1981 28.7459C29.1764 29.048 29.1587 30.6302 29.1585 32.2864L29.1582 35.2806H27.7615H26.3648V28.9477V22.6148H27.6849H29.0051V23.8457C29.0051 24.5226 29.0157 25.066 29.0286 25.0531C29.0415 25.0401 29.0917 24.9163 29.14 24.7779C29.2804 24.3761 29.5557 23.9731 29.9787 23.5502C30.6854 22.8436 31.391 22.4671 32.3342 22.2933C32.4689 22.2685 33.598 22.2988 33.7022 22.33ZM41.249 22.3869C42.6921 22.6358 43.6983 23.1913 44.3924 24.1222C44.7768 24.6378 45.0566 25.3307 45.1356 25.963L45.1619 26.1735H43.7049H42.2478L42.2058 26.0108C42.0939 25.5781 41.8732 25.2081 41.6044 25.0019C41.4087 24.8519 40.9575 24.6627 40.5928 24.5777C40.1604 24.4768 39.0824 24.4866 38.6442 24.5953C37.9958 24.7562 37.6235 25.0023 37.4625 25.3765C37.3916 25.5414 37.3793 25.6258 37.3936 25.8492C37.4266 26.363 37.6962 26.6832 38.361 26.9982C38.8079 27.21 39.3013 27.3476 40.5535 27.6098C41.8168 27.8743 42.2005 27.9699 42.8571 28.1842C43.7239 28.4669 44.3103 28.8089 44.7775 29.3041C45.3933 29.9569 45.6628 30.7682 45.5985 31.7756C45.5549 32.4588 45.3966 32.9469 45.0463 33.4783C44.3487 34.5367 43.1493 35.2037 41.3839 35.5153C40.9521 35.5916 40.7579 35.6032 39.9107 35.6032C38.8691 35.6033 38.582 35.5723 37.787 35.3738C36.3033 35.0032 35.2023 34.1556 34.6734 32.9768C34.4734 32.531 34.324 31.8645 34.324 31.418V31.2245H35.7125H37.1009L37.1715 31.5737C37.3557 32.4851 37.9091 33.0253 38.9349 33.2957C39.2429 33.3769 39.3602 33.3864 40.0446 33.3858C41.0556 33.3848 41.6418 33.2648 42.1194 32.961C42.5788 32.6689 42.7806 32.3257 42.7806 31.8367C42.7806 31.4265 42.674 31.1822 42.3629 30.8801C41.9079 30.4381 41.3421 30.2273 39.6429 29.8667C37.4319 29.3976 36.666 29.1412 35.906 28.6158C35.2278 28.147 34.7653 27.4128 34.6327 26.5944C34.5742 26.2334 34.5828 25.5251 34.6496 25.2018C34.7714 24.6122 35.0226 24.1659 35.4975 23.695C36.2439 22.9551 37.3145 22.5086 38.7245 22.3494C38.9244 22.3268 39.1483 22.3013 39.2219 22.2927C39.576 22.2514 40.791 22.3078 41.249 22.3869ZM51.5816 33.6735V35.3189H49.8788H48.176V33.6735V32.0281H49.8788H51.5816V33.6735ZM13.7137 38.9317C14.0369 39.029 14.2744 39.2661 14.3714 39.5882L14.4223 39.7577H14.2358C14.0583 39.7577 14.0473 39.7515 14.0072 39.63C13.9181 39.3601 13.6185 39.1837 13.2491 39.1837C12.9642 39.1837 12.7291 39.2989 12.5622 39.5201C12.3977 39.7383 12.3432 39.9392 12.3419 40.3342C12.3408 40.6275 12.3532 40.6857 12.4589 40.8876C12.8602 41.6539 13.9707 41.5175 14.1037 40.6856L14.1297 40.523H13.6847H13.2398V40.3699V40.2168H13.8329H14.426V40.9247V41.6327H14.3173C14.2234 41.6327 14.2022 41.6115 14.1623 41.4783L14.116 41.3239L13.9633 41.4546C13.7725 41.6179 13.5277 41.6909 13.1824 41.6873C12.264 41.6778 11.7157 40.6931 12.0698 39.6895C12.1939 39.3375 12.4717 39.0525 12.8073 38.9328C12.9992 38.8643 13.4879 38.8638 13.7137 38.9317ZM40.4183 38.9378C40.7309 39.0443 41 39.3354 41.079 39.6524C41.105 39.7567 41.1036 39.7577 40.9128 39.7577C40.7296 39.7577 40.7191 39.7521 40.6948 39.6414C40.6601 39.4834 40.43 39.269 40.2401 39.2179C39.9709 39.1454 39.6305 39.1893 39.4428 39.3207C39.0333 39.6071 38.8827 40.3906 39.14 40.8951C39.5209 41.6417 40.6686 41.5082 40.7768 40.7047L40.8012 40.523H40.3751H39.949V40.3699V40.2168H40.5421H41.1352V40.9247V41.6327H41.0046C40.8821 41.6327 40.8725 41.6232 40.8482 41.4796C40.834 41.3954 40.8161 41.3265 40.8086 41.3265C40.801 41.3265 40.7465 41.372 40.6876 41.4275C40.1986 41.8882 39.2533 41.7398 38.874 41.1429C38.6949 40.861 38.6353 40.6023 38.6569 40.2C38.6904 39.5783 38.9903 39.115 39.4741 38.9377C39.6792 38.8626 40.1978 38.8627 40.4183 38.9378ZM48.3388 38.9539C48.6358 39.065 48.8817 39.3434 48.9558 39.6524C48.9807 39.7564 48.9787 39.7577 48.7931 39.7577C48.625 39.7577 48.6027 39.7477 48.5814 39.6627C48.5477 39.5286 48.3338 39.2966 48.1874 39.2354C48.0102 39.1613 47.6509 39.1716 47.4681 39.256C47.1466 39.4044 46.9813 39.7041 46.9586 40.1801C46.9383 40.6036 47.0152 40.8871 47.2085 41.101C47.3759 41.2864 47.4892 41.3489 47.7201 41.3835C48.1205 41.4436 48.4773 41.2126 48.5855 40.8233L48.6478 40.5995H48.8189H48.99L48.9657 40.7771C48.8733 41.4509 48.2155 41.8412 47.4864 41.6547C47.3501 41.6198 47.1714 41.5448 47.0894 41.488C46.589 41.1418 46.4175 40.2089 46.7307 39.5382C46.858 39.2656 47.1629 39.0003 47.4487 38.9133C47.6472 38.8529 48.1275 38.8748 48.3388 38.9539ZM9.69769 38.9565C10.1465 39.0346 10.4954 39.317 10.607 39.6923C10.6333 39.7808 10.6552 40.0255 10.6556 40.236C10.6568 40.9016 10.4746 41.2789 10.0459 41.4983C9.82347 41.6122 9.81268 41.6137 9.11962 41.6261L8.41837 41.6387V40.3028C8.41837 39.568 8.42985 38.9553 8.44389 38.9413C8.4848 38.9004 9.44223 38.912 9.69769 38.9565ZM11.4796 40.2742V41.6327H11.3074H11.1352V40.2742V38.9158H11.3074H11.4796V40.2742ZM15.3444 40.2742V41.6327H15.1521H14.9599L14.9627 40.3297C14.9643 39.6131 14.9752 39.0018 14.9869 38.9713C15.001 38.9345 15.0647 38.9158 15.1763 38.9158H15.3444V40.2742ZM17.8316 39.0677V39.2195L17.382 39.2303L16.9324 39.2411L16.9223 40.4369L16.9122 41.6327H16.7411H16.57L16.5598 40.4369L16.5497 39.2411L16.1001 39.2303L15.6505 39.2195V39.0677V38.9158H16.7411H17.8316V39.0677ZM19.0006 39.1454C19.4375 40.2584 19.8043 41.1966 19.8796 41.3935L19.971 41.6327H19.7674H19.5637L19.4202 41.2299L19.2767 40.8271L18.7012 40.8377L18.1257 40.8482L17.9848 41.2309L17.844 41.6135L17.6656 41.6252C17.5608 41.632 17.4872 41.6205 17.4872 41.5973C17.4872 41.5601 18.4692 39.0084 18.5088 38.9426C18.519 38.9258 18.6152 38.9172 18.7226 38.9235L18.918 38.9349L19.0006 39.1454ZM20.5867 40.1212V41.3265H21.3138H22.0408V41.4796V41.6327H21.1416H20.2423V40.2742V38.9158H20.4145H20.5867V40.1212ZM24.5343 39.016C24.7834 39.1415 24.8845 39.4237 24.7791 39.6995C24.7189 39.8572 24.4593 40.1403 24.3749 40.1403C24.3539 40.1403 24.3367 40.1588 24.3367 40.1814C24.3367 40.2248 24.7466 40.7249 24.7991 40.7454C24.816 40.7521 24.8407 40.6918 24.8541 40.6115C24.8926 40.3802 24.9007 40.3699 25.0435 40.3699C25.1707 40.3699 25.1785 40.3772 25.1773 40.4943C25.1766 40.5626 25.1436 40.7128 25.1038 40.8279L25.0316 41.0372L25.2763 41.3253L25.521 41.6135L25.3241 41.6253C25.1341 41.6367 25.1221 41.6313 24.9867 41.4742L24.8464 41.3112L24.7159 41.4333C24.552 41.5866 24.3083 41.6712 24.0334 41.6701C23.1885 41.6667 22.9326 40.7142 23.6524 40.2523C23.7552 40.1863 23.8393 40.1243 23.8393 40.1145C23.8393 40.1047 23.7845 40.017 23.7174 39.9196C23.5026 39.6073 23.5327 39.2095 23.7836 39.0451C23.9813 38.9156 24.3096 38.9029 24.5343 39.016ZM27.0781 39.4324C27.1443 39.706 27.2632 40.2048 27.3422 40.5408C27.4404 40.9586 27.4946 41.128 27.5136 41.0765C27.5289 41.0351 27.6673 40.532 27.8213 39.9585L28.1012 38.9158H28.3045C28.4162 38.9158 28.5078 38.9287 28.5081 38.9445C28.5083 38.9603 28.5681 39.1971 28.641 39.4707C28.7139 39.7443 28.8362 40.2092 28.9128 40.5038C28.9895 40.7985 29.065 41.0632 29.0807 41.0922C29.0972 41.1228 29.1931 40.7945 29.3097 40.3077C29.4199 39.8473 29.5396 39.3501 29.5755 39.2028L29.6409 38.9349L29.8204 38.9233C29.9213 38.9167 30 38.9282 30 38.9495C30 38.9703 29.9315 39.2425 29.8478 39.5543C29.7641 39.8661 29.6051 40.4613 29.4944 40.8769L29.2933 41.6327H29.0987H28.9042L28.6637 40.743C28.5314 40.2537 28.3961 39.7534 28.3629 39.6312C28.3262 39.4959 28.2918 39.4286 28.2749 39.459C28.2597 39.4865 28.1327 39.9308 27.9927 40.4464C27.633 41.7713 27.6936 41.6327 27.4745 41.6327C27.2989 41.6327 27.287 41.6261 27.2497 41.5083C27.2008 41.3542 26.5944 38.9762 26.5944 38.9388C26.5944 38.9239 26.6761 38.9169 26.7761 38.9233L26.9577 38.9349L27.0781 39.4324ZM32.2194 39.0689V39.2219H31.4732H30.727V39.662V40.102H31.4158H32.1046V40.2551V40.4082H31.4158H30.727V40.8673V41.3265H31.4732H32.2194V41.4796V41.6327H31.2819H30.3444V40.2742V38.9158H31.2819H32.2194V39.0689ZM34.3303 39.0067C34.5515 39.1137 34.6684 39.3147 34.6682 39.5875C34.6681 39.8406 34.5875 40.0147 34.4195 40.1248L34.32 40.19L34.4643 40.2709C34.5437 40.3155 34.6494 40.412 34.6992 40.4853C34.7776 40.6008 34.7879 40.6549 34.7764 40.8899C34.7598 41.2294 34.6557 41.401 34.3834 41.5376C34.201 41.6292 34.1669 41.6327 33.4364 41.6327H32.6786V40.2698V38.9069L33.4343 38.9228C34.0569 38.936 34.2148 38.9508 34.3303 39.0067ZM37.5775 39.2315C37.7631 39.7141 37.9428 40.1761 38.2063 40.8482C38.5492 41.7228 38.539 41.6391 38.3007 41.6252L38.0999 41.6135L37.959 41.2309L37.8182 40.8482L37.2427 40.8377L36.6672 40.8271L36.5237 41.2299L36.3802 41.6327H36.1939C36.0915 41.6327 36.0077 41.625 36.0077 41.6155C36.0077 41.6061 36.1007 41.3607 36.2145 41.0702C36.3282 40.7798 36.5012 40.3355 36.5989 40.0829C36.6966 39.8304 36.8389 39.4645 36.9151 39.2698L37.0537 38.9158H37.255H37.4562L37.5775 39.2315ZM43.5077 39.0689V39.2219H42.7615H42.0153V39.662V40.102H42.7232H43.4311V40.2551V40.4082H42.7232H42.0153V40.8673V41.3265H42.7806H43.5459V41.4796V41.6327H42.5893H41.6327V40.2998C41.6327 39.5666 41.6441 38.9553 41.6582 38.9413C41.6722 38.9273 42.0941 38.9158 42.5957 38.9158H43.5077V39.0689ZM44.5493 39.2315C44.6631 39.4051 44.9789 39.8909 45.2512 40.311L45.7462 41.0748L45.7564 39.9932L45.7665 38.9117L45.9452 38.9233C46.1198 38.9347 46.1239 38.9378 46.1203 39.0593C46.1183 39.1277 46.1151 39.7347 46.1132 40.4082L46.1097 41.6327H45.9075C45.7199 41.6327 45.7 41.6237 45.6321 41.5083C45.5919 41.4399 45.3679 41.0912 45.1344 40.7334C44.9009 40.3756 44.6203 39.9452 44.5107 39.7768L44.3116 39.4707L44.3114 40.5517L44.3112 41.6327H44.139H43.9668V40.2742V38.9158H44.1546H44.3424L44.5493 39.2315ZM49.9798 39.547C50.1978 39.8942 50.3849 40.1779 50.3954 40.1776C50.4059 40.1772 50.5869 39.8975 50.7975 39.5559L51.1805 38.9349L51.3811 38.9234C51.4914 38.917 51.5816 38.924 51.5816 38.939C51.5816 38.954 51.4746 39.1314 51.3437 39.3333C51.2128 39.5351 50.9804 39.8962 50.8271 40.1358L50.5485 40.5713V41.102V41.6327H50.3763H50.2041L50.204 41.0874L50.2039 40.5421L49.8914 40.0638C49.7195 39.8007 49.4871 39.4458 49.3749 39.2751C49.2627 39.1044 49.1709 38.9537 49.1709 38.9403C49.1709 38.9268 49.2637 38.9158 49.3771 38.9158H49.5833L49.9798 39.547ZM8.80102 40.2726V41.3346L9.25366 41.321C9.67844 41.3082 9.71778 41.3003 9.8925 41.1923C10.1605 41.0266 10.2654 40.8064 10.2865 40.3657C10.3134 39.8028 10.1889 39.4982 9.86415 39.3325C9.74112 39.2697 9.60922 39.2479 9.25412 39.2315L8.80102 39.2107V40.2726ZM23.9715 39.3159C23.848 39.4393 23.853 39.5509 23.9915 39.7693C24.1194 39.9709 24.1595 39.9828 24.3031 39.8615C24.4324 39.7523 24.4898 39.6388 24.4898 39.4923C24.4898 39.2356 24.163 39.1243 23.9715 39.3159ZM33.0517 39.2432C33.0359 39.2596 33.023 39.4616 33.023 39.692V40.1111L33.512 40.0958C33.9149 40.0833 34.0245 40.067 34.1338 40.0034C34.3694 39.8663 34.3854 39.4911 34.1628 39.3249C34.0755 39.2597 33.9841 39.2452 33.57 39.2307C33.3007 39.2212 33.0675 39.2269 33.0517 39.2432ZM18.639 39.442C18.6116 39.5209 18.5134 39.7893 18.4209 40.0385C18.3283 40.2877 18.2526 40.4987 18.2526 40.5073C18.2526 40.5159 18.4506 40.523 18.6926 40.523C18.9346 40.523 19.1327 40.5073 19.1327 40.4882C19.1327 40.4322 18.7487 39.3587 18.7174 39.3272C18.7017 39.3114 18.6664 39.3631 18.639 39.442ZM37.2153 39.3408C37.2051 39.3701 37.11 39.6346 37.004 39.9285C36.898 40.2224 36.8112 40.4764 36.8112 40.4929C36.8112 40.5094 37.0092 40.523 37.2513 40.523C37.4933 40.523 37.6913 40.5149 37.6913 40.505C37.6913 40.4738 37.2692 39.3228 37.2512 39.3047C37.2417 39.2953 37.2256 39.3115 37.2153 39.3408ZM23.8584 40.4392C23.677 40.5636 23.5716 40.7539 23.5715 40.9573C23.5714 41.254 23.9307 41.468 24.2622 41.3687C24.4164 41.3225 24.6429 41.1564 24.6429 41.0896C24.6429 41.041 24.0604 40.3291 24.0238 40.3329C24.017 40.3336 23.9426 40.3814 23.8584 40.4392ZM33.023 40.8673V41.3265H33.5338C33.8148 41.3265 34.0946 41.309 34.1557 41.2877C34.3938 41.2043 34.5053 40.8773 34.3789 40.6329C34.2842 40.4498 34.1288 40.4082 33.5408 40.4082H33.023V40.8673Z" fill="#37415E" fill-opacity="0.1"/>
</svg>
