<svg width="125" height="40" viewBox="0 0 125 40" fill="none" xmlns="http://www.w3.org/2000/svg">
<path fill-rule="evenodd" clip-rule="evenodd" d="M10.9148 0.0456919C10.1563 0.137765 9.30392 0.326463 8.55996 0.567046C7.84112 0.799544 6.23789 1.55865 5.65107 1.94437C2.79767 3.81998 0.884394 6.68044 0.147497 10.1725C-0.0643575 11.1767 -0.0440277 13.9252 0.182976 14.9606C0.817988 17.857 2.26502 20.2752 4.46503 22.1167C8.59709 25.5752 14.8894 25.9478 19.4095 23.0015C22.8309 20.7714 24.8888 17.2227 25.1194 13.1552C25.1639 12.3689 25.0626 10.5726 24.9584 10.3009C24.8478 10.0129 24.7365 10.0776 22.6299 11.6528L21.9431 12.1663V12.7698C21.9431 14.4807 21.1476 16.7143 20.0167 18.1788C19.5834 18.7399 18.6529 19.6537 18.0577 20.1026C17.417 20.5858 15.8518 21.3509 15.0185 21.5882C13.2562 22.0899 11.3348 22.0419 9.61963 21.4531C7.51498 20.7306 5.60664 19.1766 4.47469 17.2635C2.2534 13.5093 2.89399 8.73516 6.02164 5.73443C6.92738 4.86551 7.29072 4.60311 8.44222 3.98622C9.00777 3.68324 9.92873 3.36864 10.7896 3.18433C11.4798 3.03653 11.7565 3.0184 12.8215 3.05129C13.735 3.07947 14.2147 3.13245 14.6726 3.25561C15.5573 3.49368 16.6142 3.93246 17.2875 4.34117C17.6228 4.54478 17.9293 4.67846 18.0114 4.65703C18.2458 4.59573 20.5378 2.856 20.5068 2.7629C20.4513 2.59665 18.9126 1.59931 18.1362 1.22639C16.3681 0.37717 14.9257 0.0421597 12.8771 0.00479677C12.1 -0.00941056 11.217 0.00903541 10.9148 0.0456919ZM22.0609 4.93215C21.2242 5.53875 14.0782 10.8074 13.3171 11.3788L12.5797 11.9324L12.1789 11.7093C11.9585 11.5865 11.0541 11.0262 10.1691 10.4641C9.28407 9.90197 8.41185 9.35919 8.23092 9.25785C7.63083 8.92182 7.65721 8.84443 7.65776 10.9378L7.65831 12.802L7.87362 12.9275C7.99206 12.9966 9.05212 13.6588 10.2293 14.3993C11.4064 15.1397 12.4501 15.7455 12.5485 15.7455C12.6514 15.7455 13.1444 15.4365 13.7071 15.0194C14.2459 14.6201 15.0213 14.048 15.4303 13.7482C15.8392 13.4483 16.5837 12.9008 17.0847 12.5315C17.5856 12.1622 18.6932 11.3479 19.5461 10.7219C20.3989 10.0959 21.6846 9.14953 22.4029 8.61883C23.1214 8.08814 23.7969 7.59033 23.9041 7.51247L24.099 7.37094L23.8017 6.78978C23.3499 5.90673 22.5689 4.75601 22.4233 4.75891C22.3535 4.76025 22.1904 4.83819 22.0609 4.93215ZM38.4268 4.90899C35.9767 5.45539 34.1296 6.8083 33.1567 8.76931C32.201 10.6953 32.0531 13.0807 32.7624 15.1238C33.6059 17.5529 35.642 19.3565 38.2574 19.9913C39.0912 20.1936 40.7812 20.2735 41.7235 20.155C43.0076 19.9935 44.5482 19.4151 45.3731 18.7846C45.7689 18.4822 46.3546 17.9281 46.3546 17.8563C46.3546 17.7939 44.3686 16.311 44.1967 16.2451C44.1344 16.2212 43.6849 16.3988 43.1977 16.6398C41.463 17.4979 39.9336 17.5449 38.3483 16.7887C37.5731 16.4188 36.6199 15.4769 36.2487 14.7138C35.0495 12.2482 36.0018 9.30024 38.3748 8.13202C39.0264 7.81121 40.283 7.5525 40.8729 7.61781C41.5588 7.69363 42.4196 7.95713 42.9528 8.25439C43.2189 8.40274 43.4923 8.52409 43.5603 8.52409C43.6284 8.52409 43.8876 8.37158 44.1363 8.18524C44.385 7.99881 44.9153 7.60627 45.3146 7.31278C45.7139 7.01929 46.0406 6.76238 46.0406 6.7419C46.0406 6.59496 44.607 5.64652 43.9506 5.35923C42.9444 4.91888 42.3638 4.81794 40.6638 4.78796C39.3392 4.76457 38.9897 4.7834 38.4268 4.90899ZM48.7879 12.488V20.0626L52.3005 20.0624C57.0501 20.062 58.0179 19.9595 59.3453 19.3162C60.9647 18.5314 61.7513 17.1979 61.753 15.235C61.7542 13.8697 61.4233 12.9816 60.6107 12.169C60.0835 11.6419 59.2998 11.2138 58.4819 11.0063C57.6898 10.8054 56.4785 10.7219 54.3526 10.7219H52.3201V9.15204V7.58217L55.4402 7.58021L58.5603 7.57832L60.2676 6.31858C61.2065 5.62572 61.9748 5.02611 61.9748 4.98615C61.9748 4.94204 59.3764 4.91339 55.3814 4.91339H48.7879V12.488ZM64.4866 12.488V20.0626H70.2951H76.1037V18.7283V17.3939H72.0612H68.0188V15.5493V13.7047H71.4725H74.9262V12.3703V11.0359H71.4725H68.0188V9.30903V7.58217H70.3676C72.7013 7.58217 72.7178 7.58099 72.9382 7.40179C73.0603 7.3025 73.8225 6.73468 74.6319 6.13993C75.4414 5.54511 76.1037 5.02579 76.1037 4.98592C76.1037 4.9422 73.7969 4.91339 70.2951 4.91339H64.4866V12.488ZM78.7724 12.4817V20.0626H80.5778H82.3831V17.9533V15.8439L84.4043 15.7998C85.6735 15.7721 86.6445 15.7132 87.0143 15.6413C89.2698 15.2027 90.7263 14.0435 91.3771 12.1687C91.5728 11.6048 91.5937 11.4388 91.5987 10.4079C91.6045 9.20526 91.4789 8.57174 91.0775 7.77935C90.4532 6.5466 89.109 5.58255 87.3924 5.13631C86.7745 4.97564 86.5266 4.9648 82.756 4.93372L78.7724 4.90091V12.4817ZM86.1557 7.72401C87.3246 8.04819 87.9704 8.85188 88.0866 10.1269C88.1314 10.6195 87.9895 11.3518 87.7657 11.7834C87.5714 12.1578 87.1048 12.5886 86.6717 12.7935C86.0784 13.0742 85.4478 13.154 83.8156 13.1546L82.3831 13.1552V10.3687V7.58217H84.0136C85.3451 7.58217 85.7378 7.60815 86.1557 7.72401ZM56.6201 13.5093C57.5311 13.7241 58.022 14.089 58.2433 14.7164C58.5836 15.6809 58.1684 16.6838 57.2687 17.0709C56.6996 17.3158 55.9617 17.3887 54.0273 17.3914L52.3201 17.3939V15.3923V13.3907L54.2236 13.3919C55.627 13.3927 56.2566 13.4236 56.6201 13.5093ZM33.0107 32.4254V40H34.5021H35.9935V34.6847V29.3694L36.2486 29.7695C36.3889 29.9895 36.6626 30.4229 36.8569 30.7327C37.0512 31.0426 37.3162 31.4619 37.4457 31.6645C37.5753 31.8671 38.2968 33.0219 39.049 34.2307C39.8012 35.4395 40.4688 36.4904 40.5327 36.5659C40.6293 36.68 40.7833 36.7033 41.4433 36.7033H42.2377L43.0711 35.31C43.5294 34.5438 44.2738 33.3114 44.7252 32.5715C45.1767 31.8316 45.5694 31.1782 45.5977 31.1194C45.626 31.0606 45.7285 30.8867 45.8253 30.733C45.9222 30.5792 46.1603 30.1914 46.3546 29.8712L46.7078 29.2888L46.728 34.6445L46.7482 40H48.239H49.7298V32.4239V24.8478L47.9868 24.8689L46.2438 24.89L43.8855 28.7941C42.5885 30.9413 41.5096 32.6984 41.488 32.6986C41.4527 32.6991 41.2438 32.3814 41.076 32.0722C41.0409 32.0074 40.7571 31.539 40.4455 31.0314C40.1338 30.5238 39.1577 28.9254 38.2762 27.4796L36.6734 24.8507H34.8421H33.0107V32.4254ZM57.524 24.9881C57.4081 25.3047 55.5302 29.9437 52.9085 36.3893C51.8305 39.0397 51.5352 39.794 51.5352 39.8973C51.5352 39.9834 51.817 39.9994 53.0357 39.9821L54.5363 39.9608L54.9467 38.9403C55.1725 38.3791 55.4899 37.5755 55.6521 37.1546L55.9471 36.3893H59.2191H62.4911L62.9123 37.4293C63.144 38.0014 63.4743 38.8138 63.6462 39.2347L63.9589 40H65.5179C66.4073 40 67.0769 39.9692 67.0769 39.9283C67.0769 39.8231 66.6264 38.6785 65.9005 36.9388C65.5492 36.0969 65.0903 34.9843 64.8807 34.4662C64.6711 33.9481 64.2646 32.9591 63.9773 32.2684C63.6899 31.5776 63.2312 30.465 62.9578 29.7958C62.6844 29.1267 62.2254 28.014 61.9379 27.3233C61.6504 26.6326 61.3059 25.7936 61.1725 25.4591L60.9298 24.8507H59.252C57.7256 24.8507 57.5697 24.8631 57.524 24.9881ZM68.8822 32.4254V40H70.3736H71.865V37.6452V35.2904H73.5924C75.4419 35.2904 76.4453 35.1856 77.4028 34.8924C79.0056 34.4017 80.1282 33.3831 80.6403 31.9544C80.9154 31.1874 80.9797 29.5241 80.7728 28.5254C80.3354 26.4125 78.6456 25.2212 75.6779 24.9338C75.2063 24.8881 73.4844 24.8507 71.8513 24.8507H68.8822V32.4254ZM83.5605 32.4254V40H85.0519H86.5433V36.7425V33.485L87.5833 33.4865L88.6234 33.4879L89.2258 34.2125C90.7294 36.0212 93.0254 38.7595 93.5935 39.4217L94.0895 40H95.9344C97.4787 40 97.7752 39.982 97.754 39.8897C97.7316 39.7924 97.1142 39.0389 95.3346 36.9369C93.0926 34.2889 92.3115 33.3675 91.7884 32.7543L91.1857 32.0477L91.4888 31.6871C92.5769 30.3923 96.8241 25.0291 96.825 24.9489C96.8257 24.8733 96.4224 24.8507 95.0674 24.8507H93.3088L92.1877 26.3225C91.571 27.132 90.8325 28.0945 90.5464 28.4615C90.2604 28.8284 89.6824 29.579 89.2621 30.1294L88.4981 31.1302H87.5207H86.5433V27.9905V24.8507H85.0519H83.5605V32.4254ZM99.5732 32.4254V40H105.029H110.484V38.6656V37.3312H106.52H102.556V35.4081V33.485H106.01H109.463V32.1899V30.8947H106.01H102.556V29.1679V27.441H106.402H110.248V26.1459V24.8507H104.911H99.5732V32.4254ZM111.818 26.1459V27.441H114.291H116.763V33.7205V40H118.255H119.746V33.7205V27.441H122.258H124.77V26.1459V24.8507H118.294H111.818V26.1459ZM75.931 27.6349C77.2121 27.9461 77.8305 28.6971 77.8305 29.9418C77.8305 30.9977 77.3899 31.7988 76.5746 32.2251C75.8989 32.5785 75.5026 32.6401 73.6507 32.6801L71.865 32.7186V30.0677V27.4169L73.6507 27.4658C74.8288 27.4982 75.6047 27.5556 75.931 27.6349ZM59.8524 29.7958C60.1675 30.5945 60.5421 31.5305 60.685 31.8759C61.0116 32.6656 61.4254 33.7218 61.4254 33.7657C61.4254 33.784 60.4237 33.799 59.1994 33.799H56.9734L58.0808 31.0203C58.6899 29.4921 59.2088 28.2647 59.2339 28.2927C59.2589 28.3208 59.5373 28.9972 59.8524 29.7958Z" fill="#37415E"/>
</svg>
