<svg width="172" height="20" viewBox="0 0 172 20" fill="none" xmlns="http://www.w3.org/2000/svg">
<path fill-rule="evenodd" clip-rule="evenodd" d="M161.439 0.396335C158.849 1.30169 157.212 3.90097 157.64 6.43063C157.938 8.19684 159.264 9.59557 161.377 10.3731C162.248 10.6934 163.799 11.2583 164.823 11.6281C168.059 12.7966 168.932 15.2658 166.545 16.5002C164.401 17.6091 160.848 16.741 160.011 14.9033C159.528 13.8427 159.237 13.8097 157.812 14.6515C156.89 15.1958 156.79 15.4066 157.134 16.078C158.943 19.6066 164.332 21.094 168.153 19.1185C170.595 17.8556 171.7 14.7378 170.558 12.3307C169.792 10.717 168.421 9.83446 164.886 8.6788C162.2 7.80084 160.488 6.54552 160.488 5.45338C160.488 4.37799 162.253 2.98078 163.609 2.9823C164.964 2.98382 167.231 4.16915 167.571 5.05358C167.75 5.52148 167.968 5.51121 169.079 4.98093C169.794 4.64009 170.379 4.20187 170.379 4.00672C170.379 3.81157 169.733 3.00627 168.943 2.21693C166.899 0.17304 164.054 -0.517388 161.439 0.396335ZM0.524953 2.12488C0.814058 3.11886 1.75821 6.58508 2.62363 9.828C3.48866 13.0709 4.45373 16.6227 4.76757 17.7213L5.33855 19.7184H7.19566H9.05278L9.76185 17.3409C10.1518 16.0335 11.0583 12.8663 11.7757 10.3035C12.4935 7.74074 13.1851 5.64359 13.3129 5.64359C13.4407 5.64359 14.4522 8.81841 15.5603 12.6989L17.5757 19.7542L19.5062 19.6412L21.4364 19.5282L23.7964 10.779C25.0947 5.96693 26.2568 1.64481 26.3789 1.17387C26.5843 0.384543 26.4744 0.317973 24.965 0.317973H23.3281L21.4824 7.26029C20.4671 11.0784 19.5165 14.4308 19.37 14.7097C19.2205 14.9942 18.1824 11.9856 17.0077 7.86246L14.9117 0.508173L13.3315 0.39139C12.4623 0.326722 11.7513 0.333189 11.7513 0.404704C11.7513 0.692668 7.55857 14.9083 7.43836 15.0288C7.36723 15.1 6.5699 12.3755 5.66645 8.97438C4.763 5.57321 3.87172 2.23443 3.68532 1.55428C3.36883 0.398237 3.23835 0.317973 1.67338 0.317973H0L0.524953 2.12488ZM29.2498 10.0182V19.7184H30.7714H32.293V10.0182V0.317973H30.7714H29.2498V10.0182ZM36.097 10.0182V19.7184H41.6128H47.1286V18.1968V16.6752H43.1344H39.1402V8.49659V0.317973H37.6186H36.097V10.0182ZM49.7914 10.0182V19.8067L54.8318 19.6568C59.3224 19.5233 60.0569 19.4042 61.566 18.5666C64.9261 16.7015 66.784 13.0549 66.423 9.03372C66.1205 5.66679 64.2935 2.85563 61.4408 1.36902C60.1296 0.68582 59.0447 0.525291 54.8318 0.390629L49.7914 0.22972V10.0182ZM69.5723 10.0182V19.7184L74.2322 19.7101C78.0024 19.7032 79.1991 19.5625 80.5008 18.9713C82.4576 18.0831 83.6445 16.2826 83.6445 14.2026C83.6445 12.5889 82.5242 10.3374 81.5321 9.95695C81.0357 9.76637 81.0809 9.58416 81.8197 8.79787C82.528 8.04354 82.6961 7.43908 82.6961 5.64359C82.6961 3.80283 82.5333 3.24592 81.7451 2.39192C80.1794 0.69495 78.7647 0.317973 73.9591 0.317973H69.5723V10.0182ZM87.0707 10.0182V19.7184H92.7767H98.4828V18.1968V16.6752H94.2984H90.1139V14.0124V11.3496H93.918H97.722V9.828V8.30639H93.918H90.1139V5.83379V3.36118H94.2984H98.4828V1.83958V0.317973H92.7767H87.0707V10.0182ZM101.526 10.0182V19.7184H103.048H104.569V16.1046V12.4908L106.566 12.4961L108.563 12.5015L110.631 16.1099L112.698 19.7184H114.34C115.242 19.7184 115.981 19.6515 115.981 19.5697C115.981 19.4879 115.043 17.8328 113.895 15.8916L111.81 12.3622L113.316 11.0727C115.788 8.95688 116.214 5.94524 114.45 3.05382C113.182 0.974545 111.204 0.336232 105.996 0.326341L101.526 0.317973V10.0182ZM118.644 10.0182V19.7184H120.166H121.687V16.1046V12.4908L123.684 12.4988L125.681 12.5068L127.717 16.1126L129.753 19.7184H131.454H133.155L131.917 17.5311C131.236 16.3279 130.279 14.7013 129.791 13.9162L128.904 12.4885L130.586 10.873C132.841 8.70657 133.256 6.48731 131.899 3.85C130.437 1.00916 128.724 0.317973 123.149 0.317973H118.644V10.0182ZM135.762 10.0182V19.7184H137.284H138.805V10.0182V0.317973H137.284H135.762V10.0182ZM142.609 10.0182V19.7184H148.505H154.402V18.1968V16.6752H150.027H145.652V14.0124V11.3496H149.647H153.641V9.828V8.30639H149.647H145.652V5.83379V3.36118H150.027H154.402V1.83958V0.317973H148.505H142.609V10.0182ZM59.834 3.89146C60.5321 4.18323 61.5964 5.06842 62.1994 5.85889C63.1747 7.13742 63.2957 7.60075 63.2957 10.0559C63.2957 13.1318 62.738 14.2597 60.4465 15.8193C59.3901 16.5383 58.6803 16.6752 56.0118 16.6752H52.8346V10.0182V3.36118H55.6998C57.2891 3.36118 59.1303 3.59741 59.834 3.89146ZM79.2508 4.20681C80.0204 5.30541 80.0048 6.73648 79.2136 7.61064C78.7057 8.17211 78.0077 8.30639 75.5997 8.30639H72.6155V5.83379V3.36118H75.637C78.3284 3.36118 78.7236 3.45362 79.2508 4.20681ZM111.573 4.53167C112.114 5.17531 112.558 6.10349 112.558 6.59459C112.558 7.08569 112.114 8.01386 111.573 8.6575C110.626 9.78273 110.472 9.828 107.579 9.828H104.569V6.59459V3.36118H107.579C110.472 3.36118 110.626 3.40645 111.573 4.53167ZM128.544 4.32245C129.841 5.70293 129.777 7.7415 128.399 8.92645C127.499 9.70018 126.95 9.828 124.519 9.828H121.687V6.59459V3.36118H124.664C127.356 3.36118 127.728 3.45324 128.544 4.32245ZM79.8431 12.1104C80.2657 12.533 80.6039 13.3783 80.6039 14.0124C80.6039 16.0723 79.5274 16.6752 75.8489 16.6752H72.6155V14.0124V11.3496H75.8489C78.5752 11.3496 79.2018 11.469 79.8431 12.1104Z" fill="#37415E"/>
</svg>
