<svg width="149" height="30" viewBox="0 0 149 30" fill="none" xmlns="http://www.w3.org/2000/svg">
<path fill-rule="evenodd" clip-rule="evenodd" d="M6.59664 0.0845378C5.15924 0.302185 3.64227 1.20218 2.68723 2.40403C1.52597 3.86538 0.91521 5.84294 0.929916 8.09429C0.946555 10.6299 1.71597 12.7434 3.05874 13.9422C3.19277 14.0618 3.36294 14.2197 3.43689 14.293C3.62916 14.4836 4.34689 14.9644 4.78992 15.1992C4.9979 15.3095 5.18311 15.413 5.20143 15.4293C5.25235 15.4745 4.84336 16.3025 4.77008 16.3025C4.73479 16.3025 4.70588 16.3379 4.70588 16.3811C4.70588 16.4508 4.22697 17.3661 3.47185 18.7395C3.22714 19.1847 2.95008 19.6991 2.18345 21.1318C1.98639 21.5003 1.74975 21.9351 1.65748 22.0982C1.44807 22.4689 1.08101 23.1429 0.672269 23.9076C0.499328 24.2311 0.277311 24.6387 0.178908 24.8134C0.0805042 24.9882 0 25.1687 0 25.2146C0 25.2676 0.528571 25.2897 1.44429 25.2751L2.88849 25.2521L3.17723 24.7059C3.33597 24.4055 3.77857 23.5546 4.16084 22.8151C4.54303 22.0756 5.07244 21.0546 5.33714 20.5462C5.72731 19.797 7.08824 17.16 7.62487 16.1134C7.74269 15.8837 7.74857 15.8824 8.61891 15.8824H9.49437L9.51613 20.5672L9.53782 25.2521H10.7983H12.0588L12.0801 12.6261L12.1013 0L9.55908 0.0105042C8.16084 0.0162185 6.82773 0.0495798 6.59664 0.0845378ZM77.8359 13.2115L77.8571 24.916L78.5081 24.9405L79.159 24.965L79.1803 14.9825C79.2016 5.0563 79.2025 5.00429 79.3557 5.7563C79.4404 6.17227 79.5419 6.57412 79.5811 6.64933C79.6203 6.72454 79.6766 6.93252 79.7064 7.11151C79.7361 7.2905 79.8124 7.62605 79.8761 7.85714C79.9398 8.08824 80.0734 8.57983 80.1729 8.94958C80.2726 9.31933 80.4214 9.86765 80.5036 10.1681C80.6561 10.7256 80.7829 11.2041 81.0937 12.395C81.1902 12.7647 81.3225 13.2563 81.3879 13.4874C81.5977 14.2292 81.7773 14.8929 82.0358 15.8824C82.1746 16.4139 82.3622 17.1134 82.4526 17.437C82.543 17.7605 82.6651 18.2366 82.7239 18.495C82.7827 18.7535 82.8553 19.0047 82.8854 19.0534C82.9154 19.1019 82.9939 19.3821 83.0597 19.6759C83.1255 19.9697 83.2492 20.4559 83.3346 20.7563L83.4899 21.3025H84.1152H84.7405L84.8536 20.9244C84.9158 20.7164 85.0428 20.2626 85.1356 19.916C85.2286 19.5693 85.3756 19.021 85.4625 18.6975C85.5493 18.374 85.6961 17.8256 85.7886 17.479C85.881 17.1324 86.0186 16.6218 86.0942 16.3445C86.1698 16.0672 86.3077 15.5567 86.4004 15.2101C86.689 14.1319 86.8024 13.7128 86.9295 13.2563C86.997 13.0137 87.1293 12.522 87.2236 12.1639C87.3178 11.8057 87.4721 11.2195 87.5663 10.8613C87.6606 10.5031 87.7899 10.021 87.8538 9.78992C88.3196 8.10403 88.4439 7.6221 88.7419 6.34454C88.8282 5.97479 88.9307 5.53992 88.9697 5.37815C89.0909 4.87479 89.2045 5.08908 89.1597 5.73672C89.1366 6.07101 89.1177 10.5231 89.1177 15.6303V24.916L89.8529 24.9403L90.5882 24.9645V13.2386V1.51261H89.6804H88.7727L88.6801 1.91176C88.6292 2.13134 88.509 2.59454 88.4129 2.94118C88.3169 3.28782 88.1973 3.7605 88.1472 3.9916C88.0971 4.22269 88.0333 4.46849 88.0053 4.53782C87.9541 4.66479 87.7396 5.44723 87.5215 6.30252C87.375 6.87748 87.2111 7.49269 86.9732 8.36134C86.8719 8.73109 86.7203 9.29832 86.6364 9.62185C86.5524 9.94538 86.4017 10.5126 86.3015 10.8824C86.2013 11.2521 86.069 11.7437 86.0075 11.9748C85.9461 12.2059 85.8192 12.6786 85.7259 13.0252C85.6325 13.3718 85.4804 13.9391 85.3879 14.2857C85.2955 14.6324 85.1566 15.1429 85.0792 15.4202C85.0019 15.6975 84.8894 16.1324 84.8293 16.3866C84.7692 16.6408 84.6837 16.9811 84.6393 17.1429C84.595 17.3046 84.4885 17.8261 84.4027 18.3018C84.2232 19.2964 84.0939 19.3076 83.9951 18.3372C83.9202 17.6003 83.6092 16.2306 83.228 14.958C83.1657 14.75 83.0795 14.4286 83.0364 14.2437C82.9933 14.0588 82.8178 13.3782 82.6464 12.7311C81.8441 9.70294 81.6818 9.07824 81.5873 8.65546C81.5408 8.44748 81.4691 8.20168 81.4279 8.10924C81.3867 8.01681 81.234 7.46849 81.0884 6.89076C80.9428 6.31303 80.7485 5.55672 80.6566 5.21008C80.5648 4.86345 80.4396 4.39076 80.3784 4.15966C80.3172 3.92857 80.1856 3.43698 80.0861 3.06723C79.9864 2.69748 79.8592 2.20588 79.8035 1.97479L79.7023 1.55462L78.7584 1.53084L77.8145 1.50706L77.8359 13.2115ZM9.47538 7.96218L9.49697 13.7815L8.59303 13.7787C7.67815 13.7757 6.65059 13.5908 6.21849 13.3514C5.68319 13.0549 5.18832 12.6496 4.91882 12.287C4.75689 12.0691 4.5937 11.8529 4.55622 11.8067C4.42143 11.6405 4.12034 10.9564 3.9579 10.447C3.7105 9.67126 3.60387 8.26538 3.70303 7.08555C3.80008 5.93151 4.00252 5.15958 4.43261 4.30429C4.75748 3.65815 5.4779 2.77311 5.67899 2.77311C5.74462 2.77311 5.79832 2.74202 5.79832 2.70403C5.79832 2.59563 6.59765 2.26202 7.03824 2.18655C7.25756 2.14891 7.89076 2.1237 8.44538 2.1305L9.45378 2.14286L9.47538 7.96218ZM43.8739 8.07891C42.6236 8.47471 41.689 9.41588 40.9232 11.0504C40.6539 11.6251 40.5732 11.8637 40.2408 13.0672C39.8124 14.6182 39.6375 17.6361 39.8706 19.4538C40.045 20.8147 40.2398 21.4928 40.764 22.5637C41.888 24.8602 43.8045 25.8843 46.3639 25.5561C47.5589 25.4028 49.4955 24.6472 49.4265 24.3612C49.4115 24.2989 49.3582 23.9256 49.3081 23.5316C49.2579 23.1376 49.1892 22.7833 49.1552 22.7443C49.1213 22.7053 48.7587 22.7809 48.3493 22.9124C47.6723 23.1297 47.495 23.1513 46.3866 23.1512C45.2112 23.1512 45.1521 23.1428 44.7159 22.9131C44.4672 22.7822 44.0887 22.4987 43.8745 22.2829C43.5099 21.9155 42.9412 20.9252 42.9412 20.6577C42.9412 20.5918 42.9038 20.5004 42.8581 20.4547C42.7562 20.3529 42.4391 18.3449 42.4379 17.7941L42.437 17.395H45.9664H49.4958V15.8526C49.4958 12.6476 48.8774 10.4229 47.6198 9.10387C46.5865 8.01992 45.2313 7.64916 43.8739 8.07891ZM67.2689 8.07193C65.0336 8.76992 63.568 10.9848 62.8789 14.7059C62.6627 15.8734 62.6684 19.0519 62.8887 20.1681C63.4309 22.9159 64.6503 24.609 66.6276 25.3598C67.1268 25.5494 67.3074 25.5714 68.3613 25.5713C69.3916 25.5711 69.6161 25.545 70.1681 25.3611C70.947 25.1016 72.0015 24.615 72.0481 24.4935C72.0971 24.3659 71.9244 22.829 71.8521 22.7491C71.8192 22.7128 71.4741 22.7879 71.0852 22.916C70.4527 23.1243 70.2586 23.1487 69.2437 23.148C68.1701 23.1472 68.086 23.1349 67.675 22.9172C66.7036 22.4027 65.9987 21.232 65.6653 19.5798C65.1617 17.0834 65.4624 13.5951 66.3414 11.737C67.038 10.2646 68.0799 9.68538 69.1549 10.173C69.5169 10.3373 70.1854 10.8302 70.3992 11.0905C70.4916 11.203 70.5246 11.1945 70.6724 11.0201C70.7647 10.911 70.8403 10.7724 70.8403 10.712C70.8403 10.6516 70.8707 10.5897 70.9077 10.5742C70.9449 10.5588 71.1707 10.2076 71.4095 9.79387C71.8151 9.09134 71.8349 9.03151 71.7072 8.8905C71.6321 8.80748 71.5197 8.7395 71.4576 8.7395C71.3954 8.7395 71.3445 8.70773 71.3445 8.66882C71.3445 8.62992 71.0892 8.49924 70.7773 8.3784C69.5191 7.89101 68.2135 7.77698 67.2689 8.07193ZM97.2092 8.15563C96.3794 8.25151 95.5255 8.59857 94.7751 9.14521C94.216 9.55244 94.1429 9.72916 94.3145 10.2601C94.3911 10.4974 94.4538 10.7582 94.4538 10.8397C94.4538 10.9212 94.5105 11.0349 94.5798 11.0924C94.677 11.1731 94.7059 11.1737 94.7059 11.0952C94.7059 10.9186 95.3177 10.3339 95.8002 10.0492C96.827 9.4437 98.1004 9.25202 99.0577 9.55882C99.6416 9.74597 100.176 10.2507 100.477 10.8997C100.696 11.3725 100.704 11.4403 100.737 13.2511L100.772 15.1157L99.1887 15.1499C97.3869 15.1888 96.8761 15.2835 95.953 15.7497C94.329 16.5699 93.5294 18.122 93.5294 20.4542C93.5294 23.4249 94.9331 25.2101 97.2689 25.2101C97.9767 25.2101 98.6466 25.0408 99.1303 24.7397C99.5323 24.4896 100.305 23.6619 100.57 23.1976C100.708 22.9559 100.843 22.793 100.869 22.8355C100.895 22.8781 100.943 23.1745 100.976 23.4943C101.008 23.814 101.098 24.2647 101.176 24.4958L101.318 24.916L101.962 24.9405C102.315 24.954 102.605 24.954 102.604 24.9405C102.604 24.927 102.542 24.4811 102.467 23.9496C102.356 23.169 102.319 21.8524 102.273 17.1008C102.217 11.2987 102.214 11.2118 102.03 10.7304C101.654 9.74571 101.283 9.22504 100.647 8.79336C99.8271 8.23681 98.5529 8.00042 97.2092 8.15563ZM110.546 8.15294C109.49 8.3158 108.347 9.23311 107.712 10.4279C107.602 10.6331 107.477 10.8571 107.433 10.9257C107.379 11.0103 107.326 10.6318 107.269 9.7479L107.185 8.44538H106.555H105.924L105.903 19.2227L105.882 30H106.638H107.395V26.9888C107.395 25.3326 107.416 23.957 107.441 23.9318C107.466 23.9066 107.634 24.0275 107.814 24.2004C108.97 25.3112 110.779 25.5087 112.356 24.6966C113.119 24.304 114.143 23.0507 114.508 22.0639C115.133 20.3698 115.336 19.2717 115.424 17.1008C115.565 13.666 114.931 10.8806 113.655 9.32328C113.414 9.02882 112.781 8.53697 112.433 8.37261C112.163 8.24555 111.26 8.05328 111.05 8.07824C111.004 8.0837 110.777 8.11731 110.546 8.15294ZM132.794 8.15042C132.367 8.21471 131.715 8.47294 131.454 8.68067C130.252 9.63672 129.507 10.8969 129.033 12.7731C128.844 13.5228 128.572 15.8539 128.573 16.7227C128.573 18.324 128.939 20.7214 129.366 21.9234C129.533 22.3957 130.099 23.4454 130.186 23.4454C130.222 23.4454 130.252 23.4983 130.252 23.563C130.252 23.7265 131.089 24.4751 131.528 24.7043C132.834 25.3863 134.495 25.3982 135.924 24.7356C136.109 24.6499 136.311 24.5326 136.372 24.4748C136.433 24.4171 136.512 24.3697 136.548 24.3697C136.673 24.3697 137.573 23.424 137.537 23.33C137.518 23.2779 137.415 22.995 137.308 22.7014L137.114 22.1676L136.813 22.4948C136.419 22.9237 135.93 23.2909 135.462 23.5098C135.003 23.7245 134.147 23.9496 133.789 23.9496C133.504 23.9496 132.53 23.7014 132.395 23.594C132.349 23.5574 132.166 23.4165 131.99 23.2808C131.347 22.7866 130.82 21.822 130.512 20.5732C130.34 19.8758 130.084 17.8761 130.084 17.2309V16.8908H133.812H137.54L137.594 16.5008C137.741 15.4293 137.603 12.9457 137.344 11.9748C136.91 10.3518 136.405 9.48202 135.433 8.68109C134.941 8.27563 133.665 8.01908 132.794 8.15042ZM15.6023 8.37538C15.5714 8.40613 15.5462 12.2066 15.5462 16.8208V25.2101H16.8487H18.1513V21.1765V17.1429H20.084H22.0168V21.1765V25.2101H23.3197H24.6227L24.6013 16.7857L24.5798 8.36134H23.3193H22.0588L22.0369 11.7017L22.0149 15.042H20.0831H18.1513V11.6807V8.31933H16.9048C16.2192 8.31933 15.633 8.34454 15.6023 8.37538ZM29.4678 8.37538C29.437 8.40613 29.4118 9.44958 29.4118 10.694C29.4118 13.2461 29.2665 15.3471 28.9512 17.3529C28.7456 18.6611 28.3304 20.3961 28.1036 20.895C28.0374 21.0407 27.9832 21.2012 27.9832 21.2516C27.9832 21.3686 27.7595 21.9029 27.437 22.5564L27.1849 23.0672L26.6807 23.1092L26.1765 23.1513V25.8403V28.5294H27.3109H28.4454L28.4874 26.8908L28.5294 25.2521H32.1429H35.7563L35.7791 26.9118L35.8018 28.5714H36.9345H38.0672V25.8403V23.1092H37.395H36.7227V15.7143V8.31933H33.1233C31.1435 8.31933 29.4986 8.34454 29.4678 8.37538ZM52.1849 16.7647V25.2101H53.4454H54.7059V20.9713C54.7059 18.5972 54.7387 16.7124 54.7804 16.6866C54.9224 16.5987 55.0298 16.7955 56.426 19.7059C56.692 20.2605 57.2598 21.4328 57.6878 22.3109C58.1158 23.1891 58.6067 24.2007 58.7787 24.5588L59.0915 25.2101H60.5494H62.0074L61.2013 23.6345C60.7579 22.7679 59.8808 21.0378 59.2522 19.7899C58.6235 18.542 58.0903 17.5021 58.0672 17.479C58.0441 17.4559 57.8597 17.1033 57.6576 16.6954L57.2898 15.9538L57.5172 15.5189C57.6423 15.2797 57.8398 14.9139 57.956 14.7059C58.0723 14.4979 58.2793 14.1197 58.4162 13.8655C58.553 13.6113 58.872 13.0252 59.125 12.563C59.378 12.1008 59.6419 11.6092 59.7113 11.4706C59.7808 11.3319 59.9229 11.0672 60.0272 10.8824C60.1315 10.6975 60.3086 10.3761 60.4207 10.1681C60.5328 9.96008 60.764 9.54412 60.9344 9.2437C61.1049 8.94328 61.2694 8.61235 61.3001 8.5084L61.3559 8.31933L60.0687 8.32059C59.3608 8.32134 58.741 8.34966 58.6916 8.38361C58.605 8.44311 57.8519 9.94765 56.2208 13.3193C55.7961 14.1975 55.3843 15.0483 55.3058 15.2101C55.0805 15.6743 54.8621 15.969 54.7808 15.9187C54.7387 15.8928 54.7059 14.2137 54.7059 12.0959V8.31933H53.4454H52.1849V16.7647ZM118.442 8.5084C118.42 8.56622 118.412 12.2815 118.424 16.7647L118.445 24.916L119.181 24.9403L119.916 24.9645V20.7645C119.916 18.3991 119.949 16.5444 119.991 16.5183C120.056 16.4782 120.292 16.754 120.42 17.0198C120.471 17.1257 121.454 18.5965 121.513 18.6555C121.56 18.7031 123.862 22.1166 123.992 22.3311C124.098 22.5085 124.536 23.1548 124.916 23.6966C125.078 23.9272 125.21 24.1377 125.21 24.1644C125.21 24.2292 125.649 24.8155 125.756 24.8937C125.802 24.9276 126.171 24.956 126.576 24.9567C127.245 24.9579 127.311 24.9434 127.311 24.7969C127.311 24.7083 127.282 24.6233 127.246 24.6078C127.183 24.5808 126.212 23.1533 126.142 22.9836C126.122 22.9376 125.981 22.7202 125.826 22.5004C125.672 22.2807 125.414 21.9122 125.252 21.6815C125.09 21.4509 124.958 21.2465 124.958 21.2272C124.958 21.208 124.535 20.5553 124.018 19.7768C123.501 18.9983 122.745 17.8594 122.337 17.2459C121.93 16.6324 121.597 16.1017 121.597 16.0666C121.597 16.0118 122.125 15.2604 123.187 13.8061C123.329 13.6116 123.445 13.413 123.445 13.3649C123.445 13.3167 123.477 13.2773 123.515 13.2773C123.554 13.2773 123.713 13.0787 123.869 12.8361C124.025 12.5935 124.192 12.3503 124.24 12.2958C124.288 12.2413 124.46 12.0019 124.622 11.764C124.784 11.5261 125.051 11.1548 125.215 10.9388C125.379 10.7229 125.539 10.4801 125.57 10.3992C125.6 10.3182 125.664 10.2521 125.712 10.2521C125.759 10.2521 125.798 10.2103 125.798 10.1592C125.798 10.1081 125.883 9.9621 125.987 9.83471C126.183 9.59529 126.203 9.56656 126.677 8.86555L126.961 8.44538L126.275 8.42017C125.609 8.39571 125.582 8.40227 125.378 8.63723C125.263 8.7705 125.111 8.96521 125.042 9.06992C124.9 9.28429 124.327 10.0813 124.222 10.2101C124.185 10.2563 124.026 10.4926 123.87 10.7353C123.713 10.9779 123.554 11.1765 123.515 11.1765C123.477 11.1765 123.445 11.2168 123.445 11.2661C123.445 11.3439 123.159 11.767 122.899 12.0739C122.853 12.1285 122.683 12.3663 122.521 12.6024C122.359 12.8384 122.038 13.2934 121.807 13.6135C121.576 13.9336 121.087 14.6129 120.72 15.1229C120.354 15.633 120.023 16.0504 119.985 16.0504C119.947 16.0504 119.916 14.3298 119.916 12.2269V8.40336H119.199C118.703 8.40336 118.47 8.43571 118.442 8.5084ZM139.328 9.03361V9.66387H141.26H143.192L143.214 17.2899L143.235 24.916H143.95H144.664L144.685 17.2899L144.707 9.66387H146.597H148.487V9.03361V8.40336H143.908H139.328V9.03361ZM134.431 9.63731C135.036 9.99235 135.493 10.66 135.8 11.6387C136.092 12.5733 136.333 15.1507 136.167 15.5813C136.122 15.6991 135.777 15.7143 133.142 15.7143H130.168V15.4291C130.168 15.2722 130.208 14.7523 130.257 14.2736C130.487 12.0202 131.251 10.3594 132.395 9.62513C132.942 9.27403 133.82 9.27924 134.431 9.63731ZM111.622 9.5758C112.92 10.1797 113.687 12.0151 113.87 14.9537C114.012 17.2366 113.79 19.8094 113.329 21.2185C113.142 21.7924 112.632 22.7892 112.4 23.034C111.689 23.7857 111.216 23.9939 110.237 23.9848C109.834 23.981 109.456 23.9384 109.395 23.89C109.335 23.8417 109.197 23.7748 109.088 23.7413C108.75 23.6375 108.291 23.284 107.961 22.8732C107.359 22.1235 107.395 22.475 107.395 17.3786V12.7661L107.651 12.2188C108.648 10.0869 110.323 8.97151 111.622 9.5758ZM45.7001 10.3992C45.975 10.675 46.1562 10.9586 46.2864 11.3168C46.5881 12.1474 46.8165 13.5804 46.7889 14.4701L46.7647 15.2521L44.6828 15.2746C42.9175 15.2936 42.5937 15.2783 42.5537 15.174C42.5276 15.1062 42.5496 14.6234 42.6023 14.1011C42.8667 11.482 43.6938 10.0056 44.899 10.0014C45.2688 10.0001 45.335 10.0329 45.7001 10.3992ZM34.1812 16.7857L34.2028 23.1092H31.8492C30.5549 23.1092 29.4958 23.0912 29.4958 23.0692C29.4958 23.0471 29.6106 22.8169 29.7508 22.5576C30.2602 21.6161 30.6977 20.1866 31.1253 18.0672C31.2422 17.4877 31.2997 17.0708 31.5081 15.2941C31.5487 14.9475 31.6088 13.7374 31.6417 12.605C31.6745 11.4727 31.7185 10.5168 31.7394 10.4809C31.7603 10.445 32.3134 10.4261 32.9686 10.4389L34.1597 10.4622L34.1812 16.7857ZM100.739 18.7185L100.713 21.2185L100.398 21.7927C100.068 22.394 99.3633 23.3613 99.2546 23.3613C99.2198 23.3613 99.1181 23.428 99.0285 23.5095C98.4867 24.0022 97.3425 24.1468 96.6387 23.8114C95.9512 23.4839 95.5461 22.9742 95.2189 22.025C94.9609 21.2767 94.9508 19.3814 95.2007 18.6003C95.5645 17.4629 96.2292 16.7697 97.2689 16.4435C97.8788 16.2522 97.977 16.2425 99.4374 16.2299L100.766 16.2185L100.739 18.7185Z" fill="#37415E"/>
</svg>
