<svg width="21" height="21" viewBox="0 0 21 21" fill="none" xmlns="http://www.w3.org/2000/svg">
<path fill-rule="evenodd" clip-rule="evenodd" d="M9.33639 0.563513C7.03491 0.842563 5.00662 1.83835 3.38938 3.48328C3.14322 3.73365 2.94184 3.9605 2.94184 3.98736C2.94184 4.01421 3.21716 4.51365 3.5537 5.09722C4.06919 5.99108 4.6499 6.99889 5.88356 9.1406C5.98987 9.32515 6.0924 9.46647 6.1115 9.45472C6.13055 9.44291 6.15953 9.37006 6.17589 9.29278C6.23403 9.01802 6.5117 8.40989 6.73616 8.0655C7.4371 6.99013 8.50241 6.29053 9.77082 6.07257C10.0998 6.01603 10.8312 6.00636 14.7717 6.00636C17.3102 6.00636 19.3872 5.99338 19.3872 5.9775C19.3872 5.92187 19.0248 5.28719 18.809 4.96496C16.9211 2.14526 13.7846 0.474604 10.4271 0.500292C10.0929 0.502852 9.60203 0.531317 9.33639 0.563513ZM1.98241 5.25786C1.72601 5.65497 1.20241 6.78536 1.02932 7.31543C0.662318 8.43936 0.533098 9.27698 0.535181 10.5191C0.5367 11.4508 0.562778 11.722 0.735129 12.5981C0.939415 13.6369 1.51275 15.0228 2.11879 15.943C3.46393 17.9853 5.45767 19.4568 7.77998 20.1215C8.06637 20.2034 8.38199 20.2828 8.4814 20.2979C8.65857 20.3248 8.66426 20.3217 8.76631 20.141C8.89154 19.9193 10.2904 17.4862 10.7308 16.724C10.9032 16.4257 11.2234 15.8715 11.4425 15.4925L11.8407 14.8032L11.6979 14.8322C11.0241 14.9689 10.7442 14.9971 10.2967 14.9736C9.3872 14.9258 8.53404 14.6214 7.82337 14.091C7.24631 13.6604 6.89519 13.2383 6.40109 12.3812C6.27152 12.1565 5.8564 11.4357 5.47855 10.7794C5.10069 10.1231 4.61701 9.28349 4.4037 8.91358C3.88704 8.01755 2.53218 5.66335 2.33753 5.32333C2.25227 5.17441 2.16744 5.05235 2.14899 5.05214C2.13055 5.05192 2.05562 5.14447 1.98241 5.25786ZM9.81938 7.24965C9.1456 7.3931 8.66395 7.66096 8.14174 8.1827C7.82151 8.50262 7.7329 8.62477 7.54398 9.00713C7.28124 9.53881 7.19572 9.90481 7.19572 10.4974C7.19572 11.0899 7.28124 11.4559 7.54398 11.9876C7.7329 12.37 7.82151 12.4921 8.14174 12.812C8.3485 13.0186 8.62937 13.2532 8.76592 13.3332C9.85557 13.9722 11.1283 13.9722 12.218 13.3332C12.3545 13.2532 12.6354 13.0186 12.8422 12.812C13.1624 12.4921 13.251 12.37 13.4399 11.9876C13.7007 11.4598 13.7879 11.091 13.789 10.511C13.79 9.93571 13.6977 9.53915 13.4396 9.00908C13.2525 8.6249 13.1689 8.50917 12.8441 8.18465C12.6363 7.97698 12.3545 7.74158 12.218 7.66152C11.4824 7.23017 10.6125 7.08081 9.81938 7.24965ZM13.771 7.44886C14.3314 8.05374 14.7626 8.91211 14.8995 9.69519C14.9932 10.231 14.963 11.1299 14.8353 11.6065C14.6931 12.1372 14.5257 12.4803 13.7643 13.802C13.3678 14.4903 12.8521 15.3854 12.6183 15.7911C12.3844 16.1968 11.8669 17.095 11.4682 17.7871C11.0695 18.4792 10.5598 19.3624 10.3356 19.7497C10.1113 20.1371 9.92786 20.4671 9.92786 20.483C9.92786 20.5333 11.4911 20.4629 11.9673 20.3912C13.7695 20.1198 15.4438 19.3699 16.8376 18.21C19.9947 15.5827 21.2183 11.4285 20.0041 7.45997L19.9244 7.19962L16.722 7.18851L13.5195 7.17736L13.771 7.44886Z" fill="#4587F7"/>
</svg>
