<svg width="10" height="7" viewBox="0 0 10 7" fill="none" xmlns="http://www.w3.org/2000/svg">
<path fill-rule="evenodd" clip-rule="evenodd" d="M0.671583 0.030967C0.170582 0.156549 -0.121979 0.67651 0.0505465 1.13475C0.100818 1.2683 0.227184 1.42976 0.342107 1.50731C0.675238 1.73214 4.54757 4.13118 4.64866 4.1754C4.75715 4.22284 4.79835 4.22915 4.99998 4.22915C5.20155 4.22915 5.24281 4.22284 5.35114 4.17546C5.53581 4.0947 9.65209 1.52358 9.75726 1.42329C9.94289 1.24633 10.0336 0.967972 9.98755 0.717011C9.92572 0.38034 9.652 0.101053 9.31034 0.0260364C9.2103 0.00408133 8.40816 -0.000727659 4.9891 8.39867e-05C1.36425 0.000976798 0.774433 0.00519727 0.671583 0.030967ZM0.00166671 4.15305L0.00758361 6.33943L0.0590955 6.455C0.169211 6.70207 0.442933 6.92671 0.695381 6.97722C0.847285 7.00759 9.15267 7.00759 9.30458 6.97722C9.55702 6.92671 9.83755 6.69608 9.94356 6.45188L9.99237 6.33943L9.99829 4.15305C10.0015 2.95054 10 1.96668 9.99492 1.96668C9.98981 1.96668 9.7718 2.10042 9.51043 2.26387C7.40305 3.58182 5.77114 4.58929 5.65563 4.64369C5.25162 4.83392 4.74892 4.83394 4.34425 4.64378C4.2682 4.60802 3.26297 3.99107 2.11042 3.27274C0.957857 2.55442 0.0105421 1.96668 0.00529952 1.96668C5.6959e-05 1.96668 -0.00157454 2.95054 0.00166671 4.15305Z" fill="#37415E"/>
</svg>
