<svg width="8" height="10" viewBox="0 0 8 10" fill="none" xmlns="http://www.w3.org/2000/svg">
<path fill-rule="evenodd" clip-rule="evenodd" d="M3.32985 0.00464762C2.46407 0.0897056 1.73963 0.410117 1.1358 0.975086C0.626122 1.45194 0.270324 2.0588 0.0957142 2.74902C0.0123061 3.07872 -0.00983739 3.31509 0.00368765 3.73063C0.0172127 4.14609 0.0649085 4.41687 0.19979 4.84399C0.614702 6.15785 1.63527 7.83106 3.0755 9.55867C3.38905 9.93478 3.46697 10 3.60282 10C3.68526 10 3.82298 9.9306 3.87565 9.86254C3.89784 9.83384 4.02944 9.67475 4.1681 9.50897C5.58599 7.81383 6.62863 6.08666 7.02112 4.78285C7.17858 4.25978 7.23075 3.85188 7.20114 3.37536C7.18014 3.0379 7.13314 2.79304 7.0302 2.48511C6.83457 1.89993 6.5157 1.39805 6.07775 0.986027C5.54374 0.483625 4.89535 0.160652 4.18816 0.0447885C3.99744 0.0135485 3.48386 -0.0104839 3.32985 0.00464762ZM4.06487 1.85747C4.77968 2.04309 5.31467 2.66446 5.40708 3.41639C5.51476 4.29261 4.9316 5.14301 4.06007 5.38071C3.82522 5.44475 3.37722 5.44475 3.14237 5.38071C2.50237 5.20617 2.01282 4.71036 1.84073 4.06244C1.77601 3.81882 1.77601 3.41598 1.84073 3.17235C1.95197 2.75353 2.19798 2.38775 2.5266 2.15259C2.66712 2.05203 2.90973 1.9249 3.04459 1.88115C3.33766 1.78611 3.75292 1.77645 4.06487 1.85747Z" fill="#37415E"/>
</svg>
