<svg width="115" height="25" viewBox="0 0 115 25" fill="none" xmlns="http://www.w3.org/2000/svg">
<path fill-rule="evenodd" clip-rule="evenodd" d="M11.326 0.0275281C9.63146 0.187769 7.81246 0.755373 6.38026 1.57075C5.34861 2.15809 4.56033 2.75917 3.69356 3.61928C2.98735 4.32011 2.55132 4.84835 2.05139 5.60886C0.985981 7.22964 0.373078 8.88433 0.0741559 10.947C-0.0248792 11.6305 -0.0246784 13.3745 0.0745181 14.0557C0.303433 15.6281 0.679429 16.8598 1.31466 18.1185C3.22035 21.8949 6.84112 24.4292 11.0635 24.9424C11.7191 25.0221 13.4293 25.0107 14.0915 24.9223C17.7577 24.4328 20.9435 22.4409 22.9703 19.3713C23.9627 17.8682 24.5837 16.2432 24.8957 14.3326C25.0163 13.5945 25.0473 11.9421 24.9557 11.1472C24.6234 8.26613 23.3975 5.698 21.3877 3.67212C19.4603 1.72941 16.9274 0.463718 14.2048 0.0827577C13.6829 0.00972283 11.8801 -0.0248761 11.326 0.0275281ZM68.7364 0.00964313C66.9641 0.124989 65.4042 0.368276 63.9572 0.755009C58.7575 2.14473 54.7923 5.1866 53.2389 8.97751C52.7698 10.1221 52.5468 11.2505 52.5468 12.4795C52.5468 14.667 53.2895 16.7046 54.7911 18.6368C55.2559 19.235 56.2653 20.2481 56.9071 20.7607C59.5286 22.8542 62.9225 24.2479 66.6774 24.7728C69.869 25.2189 73.3571 25.0025 76.3467 24.1729C81.5252 22.7359 85.4164 19.6955 86.918 15.9129C87.3768 14.7573 87.5655 13.7647 87.5667 12.5013C87.5676 11.5385 87.5205 11.1377 87.3077 10.2984C86.8399 8.45346 85.947 6.90411 84.4617 5.36012C81.6805 2.46889 77.1631 0.513296 72.2287 0.0644686C71.7554 0.0213905 69.1774 -0.0190621 68.7364 0.00964313ZM31.3296 0.552459C29.8894 0.741768 28.8051 1.99479 28.8082 3.46618C28.8092 3.93358 28.8971 4.30598 29.1064 4.72953C29.4725 5.47022 30.0215 5.94436 30.8665 6.24954L31.1289 6.34434L35.5195 6.35552C37.9343 6.3617 39.9098 6.37986 39.9095 6.39597C39.9092 6.41204 39.1719 7.39718 38.271 8.58516C37.3701 9.77314 36.3167 11.163 35.9301 11.6737C34.8664 13.0787 33.9679 14.2645 33.4061 15.0045C33.1279 15.3709 32.4184 16.3065 31.8295 17.0837C31.2404 17.8609 30.5446 18.7783 30.283 19.1225C30.0215 19.4667 29.5464 20.0935 29.2272 20.5154C28.9079 20.9373 28.3123 21.7247 27.9034 22.265C27.1193 23.3014 27.0404 23.4471 27.0949 23.7582C27.1377 24.0034 27.2976 24.2371 27.5065 24.3598L27.6972 24.472H37.952C49.5288 24.472 48.3743 24.5061 49.115 24.1422C49.4332 23.9859 49.5575 23.8949 49.8451 23.6072C50.1328 23.3195 50.2238 23.1953 50.3801 22.8771C50.4837 22.6662 50.5993 22.3756 50.637 22.2313C50.7286 21.8807 50.726 21.21 50.6317 20.8586C50.3736 19.896 49.6986 19.1371 48.8157 18.8166C48.2095 18.5966 48.2461 18.598 42.9683 18.5978C40.2871 18.5977 38.0933 18.5863 38.0933 18.5724C38.0933 18.5498 38.9188 17.4459 40.1122 15.8725C40.348 15.5616 40.9939 14.7077 41.5474 13.975C42.101 13.2422 42.9039 12.1794 43.3317 11.6131C43.7595 11.0469 44.4525 10.1294 44.8716 9.5743C46.174 7.84924 48.0517 5.36662 49.3677 3.6301C50.0615 2.71456 50.6805 1.86975 50.7434 1.75275C50.8425 1.56816 50.855 1.50853 50.8375 1.30166C50.8126 1.00694 50.6642 0.776973 50.4053 0.63167L50.2254 0.530737L40.8992 0.525609C35.7698 0.522783 31.4635 0.534856 31.3296 0.552459ZM92.3593 0.569373C92.1587 0.63397 91.9434 0.824007 91.8516 1.01764C91.7961 1.1344 91.7894 2.2711 91.7894 11.5421C91.7894 21.7481 91.7909 21.9413 91.8689 22.2465C92.1255 23.2498 92.8656 24.0152 93.8903 24.3369C94.3229 24.4728 95.0688 24.4728 95.5038 24.337C96.5307 24.0164 97.206 23.3274 97.5284 22.2716L97.6209 21.9688L97.6338 16.8717C97.6409 14.0683 97.6567 11.7746 97.669 11.7746C97.6812 11.7746 98.0393 12.0522 98.4648 12.3914C98.8902 12.7306 99.5012 13.2166 99.8225 13.4713C100.144 13.7261 100.825 14.2671 101.337 14.6735C101.848 15.0799 102.648 15.7152 103.114 16.0853C103.58 16.4555 104.407 17.1117 104.951 17.5436C105.495 17.9756 106.104 18.4587 106.304 18.6172C107.163 19.2992 108.33 20.2258 108.948 20.7177C109.314 21.0094 110.277 21.7739 111.088 22.4168C111.898 23.0597 112.766 23.7488 113.017 23.9481C113.539 24.3633 113.7 24.4496 113.954 24.4498C114.309 24.4502 114.603 24.2361 114.739 23.878C114.799 23.7196 114.803 22.8233 114.792 13.329C114.781 3.46218 114.777 2.94125 114.707 2.71088C114.165 0.908468 112.289 0.0354 110.623 0.810845C110.012 1.09535 109.525 1.58782 109.229 2.22075C108.937 2.84407 108.948 2.60095 108.948 8.20517C108.948 10.9678 108.939 13.2281 108.928 13.2281C108.916 13.2281 108.403 12.8274 107.787 12.3378C107.171 11.8481 106.34 11.188 105.94 10.8708C104.177 9.47204 103.103 8.61968 101.94 7.69695C101.255 7.15293 100.373 6.45346 99.9815 6.14259C99.5899 5.83172 98.9718 5.34159 98.6079 5.05341C97.992 4.56566 97.0809 3.84238 95.201 2.34886C94.7791 2.01368 94.1373 1.50381 93.7747 1.21583C93.4122 0.927846 93.0553 0.660941 92.9815 0.622708C92.7892 0.523067 92.5633 0.503686 92.3593 0.569373ZM13.8097 5.93798C14.4124 6.06281 14.8209 6.19758 15.3517 6.44672C17.2962 7.35935 18.6898 9.17659 19.0816 11.3103C19.2065 11.9902 19.2075 12.9695 19.084 13.6611C18.6271 16.221 16.698 18.3063 14.1853 18.9564C13.4851 19.1375 13.1052 19.1763 12.2748 19.1511C11.3056 19.1217 10.6109 18.9651 9.7716 18.5868C7.79546 17.6961 6.35992 15.8828 5.92889 13.7327C5.82695 13.2242 5.82578 11.7972 5.92687 11.2585C6.13835 10.1313 6.71782 8.95312 7.50074 8.05837C8.57506 6.83059 10.1904 6.00488 11.871 5.82449C12.2985 5.77859 13.3324 5.83915 13.8097 5.93798ZM71.9057 5.90318C74.1462 6.14501 76.2741 6.77483 77.9134 7.68133C79.995 8.8324 81.3536 10.3434 81.678 11.8681C82.047 13.6025 80.791 15.5677 78.3819 17.0253C76.1884 18.3525 73.4861 19.0823 70.5128 19.1503C68.6243 19.1936 67.0321 19.0056 65.3249 18.5378C61.7215 17.5505 58.9955 15.4329 58.4559 13.2019C58.3552 12.7857 58.364 12.1602 58.4766 11.7141C58.8402 10.2744 60.1796 8.81516 62.1427 7.72013C64.0053 6.68113 66.4975 5.99269 68.9538 5.8387C69.6641 5.79417 71.2084 5.82792 71.9057 5.90318Z" fill="#37415E"/>
</svg>
