<svg width="56" height="19" viewBox="0 0 56 19" fill="none" xmlns="http://www.w3.org/2000/svg">
<path fill-rule="evenodd" clip-rule="evenodd" d="M0.994141 0.0234375H55.9941V18.0234H0.994141V0.0234375ZM11.0742 7.63443V12.0164H9.35413V7.63443H6.99115V6.03944H13.4362V7.63443H11.0742ZM14.1241 6.03944H15.8441V12.0164H14.1241V6.03944ZM17.1041 12.0164V6.03944H18.6411L21.5192 9.31744V6.03944H23.1021V12.0164H21.6342L18.6862 8.71445V12.0164H17.1041ZM28.4661 12.0164L26.4821 9.75644H26.0242V12.0164H24.3611V6.03944H26.0242V8.28745H26.4821L28.4901 6.03944H30.5771L27.9161 8.90244L30.6801 12.0164H28.4661ZM30.5231 9.04044C30.5231 7.25744 31.8661 5.87643 34.1021 5.87643C36.3261 5.87643 37.6682 7.25744 37.6682 9.04044C37.6682 10.8234 36.3261 12.2054 34.1021 12.2054C31.8661 12.2054 30.5231 10.8234 30.5231 9.04044ZM32.2781 9.04044C32.2781 10.0204 32.9891 10.7484 34.1021 10.7484C35.2031 10.7484 35.9261 10.0204 35.9261 9.04044C35.9261 8.06144 35.2031 7.34543 34.1021 7.34543C32.9891 7.34543 32.2781 8.06144 32.2781 9.04044ZM38.4581 6.03944H43.9741V7.55945H40.1212V8.70145H43.7341V10.0194H40.1212V12.0164H38.4581V6.03944ZM44.7191 6.03944H50.2352V7.55945H46.3821V8.70145H49.9951V10.0194H46.3821V12.0164H44.7191V6.03944Z" fill="#37415E" fill-opacity="0.5"/>
</svg>
