<svg width="20" height="20" viewBox="0 0 20 20" fill="none" xmlns="http://www.w3.org/2000/svg">
<path d="M17.0291 9.20496C17.0331 9.30396 17.0352 9.40295 17.0352 9.50195C17.0352 13.644 13.6772 17.002 9.53516 17.002C5.39316 17.002 2.03516 13.644 2.03516 9.50195C2.03516 5.35995 5.39316 2.00195 9.53516 2.00195C11.0592 2.00195 12.4761 2.45595 13.6591 3.23695L15.2922 1.94395C13.6952 0.725954 11.6992 0.00195312 9.53516 0.00195312C4.28816 0.00195312 0.0351562 4.25495 0.0351562 9.50195C0.0351562 14.749 4.28816 19.002 9.53516 19.002C14.7822 19.002 19.0352 14.749 19.0352 9.50195C19.0352 8.89695 18.9781 8.30496 18.8701 7.73096L17.0291 9.20496Z" fill="#37415E" fill-opacity="0.5"/>
<path d="M9.53516 12.0019L18.0842 5.35294C17.7922 4.75394 17.4401 4.18995 17.0341 3.66895L9.53516 9.50194L6.03516 7.31494V9.80693L9.53516 12.0019Z" fill="#37415E" fill-opacity="0.5"/>
</svg>
