<svg width="16" height="19" viewBox="0 0 16 19" fill="none" xmlns="http://www.w3.org/2000/svg">
<path opacity="0.45" fill-rule="evenodd" clip-rule="evenodd" d="M5.73952 10.27C6.07152 8.059 6.51951 5.71999 6.63951 4.94899C6.71551 4.44899 6.97751 4.037 7.97951 4.037H11.6345C12.4825 4.037 14.5125 3.93699 15.4185 5.20999C16.4675 6.68499 15.7805 9.40298 15.3315 10.345C14.9115 11.218 14.2555 11.955 13.4375 12.474C12.5595 12.844 11.6165 13.034 10.6645 13.034C9.65452 13.048 9.38952 12.917 9.22052 14.024C9.05152 15.131 8.68551 17.091 8.65451 17.335C8.65051 17.438 8.62551 17.539 8.57951 17.631C8.53351 17.723 8.46852 17.804 8.38852 17.869C8.30852 17.934 8.21551 17.981 8.11551 18.007C8.01551 18.033 7.91152 18.037 7.81052 18.019C6.97852 18.019 5.71052 18.019 5.27852 18.019C4.93952 18.019 4.63151 18.097 4.72351 17.384C4.86651 16.27 5.53952 11.605 5.73952 10.27Z" fill="#37415E" fill-opacity="0.5"/>
<path opacity="0.7" fill-rule="evenodd" clip-rule="evenodd" d="M2.23092 7.6044C2.58592 5.4224 3.18692 1.68441 3.31292 0.924408C3.39492 0.424408 3.67591 0.0244141 4.74891 0.0244141H9.74891C10.6569 0.0244141 12.9989 0.131407 14.0079 1.24541C15.0549 2.40241 15.3609 4.10541 14.4859 6.30641C14.2299 7.01441 13.8339 7.6624 13.3209 8.2124C12.8069 8.7624 12.1879 9.20241 11.4999 9.50641C10.1519 9.93541 8.73492 10.1064 7.32292 10.0124C6.24092 10.0264 5.89692 9.91241 5.71592 11.0064C5.53492 12.1004 4.99691 15.1064 4.96391 15.3494C4.93091 15.5924 4.95091 16.0244 4.06391 16.0244C3.17691 16.0244 2.04791 16.0244 1.58291 16.0244C1.21891 16.0244 0.87091 16.0984 0.98791 15.3974C1.15791 14.3694 2.01692 8.9234 2.23092 7.6044Z" fill="#37415E" fill-opacity="0.5"/>
</svg>
