<svg width="19" height="19" viewBox="0 0 19 19" fill="none" xmlns="http://www.w3.org/2000/svg">
<path d="M16.994 9.203C16.998 9.302 17 9.401 17 9.5C17 13.642 13.642 17 9.5 17C5.358 17 2 13.642 2 9.5C2 5.358 5.358 2 9.5 2C11.024 2 12.441 2.454 13.624 3.235L15.257 1.942C13.66 0.724001 11.664 0 9.5 0C4.253 0 0 4.253 0 9.5C0 14.747 4.253 19 9.5 19C14.747 19 19 14.747 19 9.5C19 8.895 18.943 8.303 18.835 7.729L16.994 9.203Z" fill="#24A236"/>
<path fill-rule="evenodd" clip-rule="evenodd" d="M18.049 5.35098L9.5 12V9.49998L16.999 3.66699C17.405 4.18799 17.757 4.75198 18.049 5.35098Z" fill="#24A236"/>
<path fill-rule="evenodd" clip-rule="evenodd" d="M6 9.80547L9.5 12.0005V9.50047L6 7.31348V9.80547Z" fill="#24A236"/>
</svg>
