<svg width="25" height="17" viewBox="0 0 25 17" fill="none" xmlns="http://www.w3.org/2000/svg">
<path opacity="0.3" fill-rule="evenodd" clip-rule="evenodd" d="M16.0352 16.0018C14.6302 16.0018 13.2502 15.6298 12.0352 14.9228C13.2512 14.2218 14.2612 13.2138 14.9632 11.9988C15.6652 10.7838 16.0352 9.40481 16.0352 8.00181C16.0352 6.59881 15.6652 5.21982 14.9632 4.00482C14.2612 2.78982 13.2512 1.78181 12.0352 1.08081C13.0982 0.464808 14.2882 0.101819 15.5132 0.0198189C16.7392 -0.0621811 17.9671 0.138816 19.1021 0.607816C20.2371 1.07682 21.2491 1.80081 22.0591 2.72381C22.8701 3.64681 23.4571 4.74381 23.7751 5.93081C24.0931 7.11681 24.1332 8.3608 23.8932 9.5648C23.6532 10.7698 23.1391 11.9028 22.3911 12.8768C21.6421 13.8508 20.6802 14.6388 19.5782 15.1808C18.4752 15.7228 17.2632 16.0038 16.0352 16.0018Z" fill="#37415E" fill-opacity="0.5"/>
<path fill-rule="evenodd" clip-rule="evenodd" d="M8.03543 8.00196C8.03543 9.40496 8.40542 10.784 9.10742 11.999C9.81042 13.214 10.8194 14.222 12.0354 14.923C10.8194 15.628 9.43942 16 8.03342 16.002C6.62842 16.004 5.24742 15.635 4.02942 14.934C2.81142 14.232 1.79944 13.222 1.09644 12.005C0.393436 10.788 0.0234375 9.40796 0.0234375 8.00196C0.0234375 6.59596 0.393436 5.21596 1.09644 3.99896C1.79944 2.78196 2.81142 1.77195 4.02942 1.06995C5.24742 0.368954 6.62842 -3.8788e-05 8.03342 0.00196121C9.43942 0.00396121 10.8194 0.375956 12.0354 1.08096C10.8194 1.78196 9.81042 2.78997 9.10742 4.00497C8.40542 5.21997 8.03543 6.59896 8.03543 8.00196Z" fill="#37415E" fill-opacity="0.5"/>
<path opacity="0.65" fill-rule="evenodd" clip-rule="evenodd" d="M12.0352 14.923C10.8192 14.222 9.80915 13.2141 9.10715 11.9991C8.40515 10.7841 8.03516 9.40506 8.03516 8.00206C8.03516 6.59906 8.40515 5.22007 9.10715 4.00507C9.80915 2.79007 10.8192 1.78205 12.0352 1.08105C13.2512 1.78205 14.2612 2.79007 14.9632 4.00507C15.6652 5.22007 16.0352 6.59906 16.0352 8.00206C16.0352 9.40506 15.6652 10.7841 14.9632 11.9991C14.2612 13.2141 13.2512 14.222 12.0352 14.923Z" fill="#37415E" fill-opacity="0.5"/>
</svg>
