<svg width="35" height="10" viewBox="0 0 35 10" fill="none" xmlns="http://www.w3.org/2000/svg">
<path fill-rule="evenodd" clip-rule="evenodd" d="M9.01001 9.00023V3.65523H8.76599L7.026 9.00023H4.95999H4.95401L3.21799 3.65523H2.97601V9.00023H0V0.000231005H2.97601C3.34301 -0.00476899 3.702 0.10823 4 0.32123C4.299 0.53423 4.52199 0.837236 4.63599 1.18624L5.85901 5.34622H6.116L7.341 1.18624C7.456 0.836236 7.67999 0.532231 7.98099 0.319231C8.28099 0.105231 8.64201 -0.00576899 9.01001 0.000231005H11.986V9.00023H9.01001Z" fill="#52B461"/>
<path fill-rule="evenodd" clip-rule="evenodd" d="M19.9787 9V3.655H19.7517L17.8707 8.14C17.7547 8.396 17.5677 8.614 17.3317 8.767C17.0957 8.919 16.8197 9 16.5387 9H14.0137V0H17.0137V5.345H17.2517L19.1567 0.854996L19.1717 0.820999C19.2917 0.575999 19.4787 0.369006 19.7107 0.225006C19.9427 0.0800061 20.2107 0.0039978 20.4837 0.0039978H23.0087V9.004H19.9807L19.9787 9Z" fill="#52B461"/>
<path fill-rule="evenodd" clip-rule="evenodd" d="M31.5475 6.01418H28.0195V9.00017H25.0195V3.99316H34.9725C34.6635 4.62916 34.1735 5.16017 33.5645 5.51917C32.9555 5.87917 32.2535 6.05118 31.5475 6.01418Z" fill="#52B461"/>
<path fill-rule="evenodd" clip-rule="evenodd" d="M34.9199 3.006H29.5079C27.0359 3.006 24.9799 1.706 24.5469 0H31.5699C33.4599 0 34.9919 1.117 34.9919 2.494C34.9919 2.667 34.9679 2.839 34.9199 3.006Z" fill="url(#paint0_linear_154_138)"/>
<defs>
<linearGradient id="paint0_linear_154_138" x1="35.0009" y1="1.5" x2="24.5319" y2="1.5" gradientUnits="userSpaceOnUse">
<stop stop-color="#198ECA"/>
<stop offset="1" stop-color="#1DB5E4"/>
</linearGradient>
</defs>
</svg>
