<svg width="16" height="19" viewBox="0 0 16 19" fill="none" xmlns="http://www.w3.org/2000/svg">
<path fill-rule="evenodd" clip-rule="evenodd" d="M5.74538 10.2465C6.07738 8.03555 6.52537 5.69655 6.64537 4.92555C6.72137 4.42555 6.98337 4.01356 7.98537 4.01356H11.6404C12.4884 4.01356 14.5184 3.91355 15.4244 5.18655C16.4734 6.66155 15.7864 9.37956 15.3374 10.3216C14.9174 11.1946 14.2614 11.9316 13.4434 12.4506C12.5654 12.8206 11.6224 13.0106 10.6704 13.0106C9.66038 13.0246 9.39538 12.8936 9.22638 14.0006C9.05738 15.1076 8.69137 17.0676 8.66037 17.3116C8.65637 17.4146 8.63137 17.5156 8.58537 17.6076C8.53937 17.6996 8.47438 17.7805 8.39438 17.8455C8.31438 17.9105 8.22137 17.9575 8.12137 17.9835C8.02137 18.0095 7.91738 18.0136 7.81638 17.9956C6.98438 17.9956 5.71638 17.9956 5.28438 17.9956C4.94538 17.9956 4.63737 18.0735 4.72937 17.3605C4.87237 16.2465 5.54538 11.5815 5.74538 10.2465Z" fill="#009DDF"/>
<path fill-rule="evenodd" clip-rule="evenodd" d="M2.23873 7.58096C2.59373 5.39896 3.19473 1.66097 3.32073 0.90097C3.40273 0.40097 3.68372 0.000976562 4.75672 0.000976562H9.75672C10.6647 0.000976562 13.0067 0.10797 14.0157 1.22197C15.0627 2.37897 15.3687 4.08197 14.4937 6.28297C14.2377 6.98997 13.8417 7.63896 13.3287 8.18896C12.8147 8.73897 12.1957 9.17897 11.5077 9.48297C10.1597 9.91197 8.74273 10.083 7.33073 9.98897C6.24873 10.003 5.90473 9.88897 5.72373 10.983C5.54273 12.077 5.00472 15.083 4.97172 15.326C4.93872 15.569 4.95873 16.001 4.07173 16.001C3.18473 16.001 2.05572 16.001 1.59072 16.001C1.22672 16.001 0.878722 16.075 0.995722 15.374C1.16572 14.347 2.02473 8.89996 2.23873 7.58096Z" fill="#0048A0"/>
<path fill-rule="evenodd" clip-rule="evenodd" d="M14.4949 6.28273C14.2389 6.98973 13.8429 7.63872 13.3299 8.18872C12.8159 8.73872 12.1969 9.17873 11.5089 9.48273C10.1069 9.91173 8.6379 10.0837 7.1749 9.98873C6.0939 10.0027 5.8439 9.88873 5.6619 10.9827C5.6619 10.9827 5.62891 10.9937 5.62891 10.9977H5.63589C5.67989 10.6977 5.7189 10.4327 5.7469 10.2447C6.0789 8.03372 6.5269 5.69472 6.6469 4.92372C6.7229 4.42372 6.98489 4.01172 7.98689 4.01172H11.6419C12.7869 3.90072 13.9389 4.14173 14.9419 4.70473C14.8519 5.24573 14.7029 5.77473 14.4949 6.28273Z" fill="#003172"/>
</svg>
