<svg width="36" height="10" viewBox="0 0 36 10" fill="none" xmlns="http://www.w3.org/2000/svg">
<path fill-rule="evenodd" clip-rule="evenodd" d="M9.04517 9.00218V3.65718H8.80115L7.06116 9.00218H4.99515H4.98917L3.25314 3.65718H3.01117V9.00218H0.0351562V0.00218413H3.01117C3.37817 -0.00281587 3.73716 0.110183 4.03516 0.323183C4.33416 0.536183 4.55714 0.839189 4.67114 1.18819L5.89417 5.34819H6.15115L7.37616 1.18819C7.49116 0.838189 7.71514 0.534184 8.01614 0.321184C8.31614 0.107184 8.67717 -0.00381587 9.04517 0.00218413H12.0211V9.00218H9.04517Z" fill="#37415E" fill-opacity="0.5"/>
<path fill-rule="evenodd" clip-rule="evenodd" d="M20.0138 9.00195V3.65695H19.7868L17.9058 8.14197C17.7898 8.39797 17.6028 8.61595 17.3668 8.76895C17.1308 8.92095 16.8548 9.00195 16.5738 9.00195H14.0488V0.00195312H17.0488V5.34695H17.2868L19.1918 0.856949L19.2068 0.822952C19.3268 0.577952 19.5138 0.370959 19.7458 0.226959C19.9778 0.0819592 20.2458 0.00595093 20.5188 0.00595093H23.0438V9.00595H20.0158L20.0138 9.00195Z" fill="#37415E" fill-opacity="0.5"/>
<path fill-rule="evenodd" clip-rule="evenodd" d="M31.5827 6.01611H28.0547V9.00211H25.0547V3.99512H35.0077C34.6987 4.63112 34.2087 5.16212 33.5997 5.52112C32.9907 5.88112 32.2887 6.05311 31.5827 6.01611Z" fill="#37415E" fill-opacity="0.5"/>
<path opacity="0.55" fill-rule="evenodd" clip-rule="evenodd" d="M34.955 3.00797H29.543C27.071 3.00797 25.015 1.70795 24.582 0.00195312H31.605C33.495 0.00195312 35.027 1.11894 35.027 2.49594C35.027 2.66894 35.003 2.84097 34.955 3.00797Z" fill="#37415E" fill-opacity="0.5"/>
</svg>
