<svg width="32" height="12" viewBox="0 0 32 12" fill="none" xmlns="http://www.w3.org/2000/svg">
<path fill-rule="evenodd" clip-rule="evenodd" d="M29.1426 11.0021C29.1426 11.0021 28.9126 9.60213 28.8356 9.25013H25.5176C25.4256 9.52513 24.9666 11.0021 24.9666 11.0021H22.2596L26.0986 1.84614C26.194 1.57414 26.3793 1.34215 26.624 1.19015C26.8687 1.03715 27.1582 0.972141 27.4446 1.00614H29.4446L31.5446 11.0061H29.1446L29.1426 11.0021ZM27.8116 4.56113L27.6276 3.70713C27.5056 4.08813 27.2756 4.68313 27.2916 4.66813C27.2916 4.66813 26.4656 6.88015 26.2666 7.46015H28.4076C28.3006 6.95715 27.8116 4.56113 27.8116 4.56113ZM22.2436 3.31113C21.6389 3.03813 20.9797 2.90715 20.3166 2.92915C19.2916 2.92915 18.8326 3.35615 18.8166 3.78315C18.8166 4.25715 19.3676 4.56114 20.2846 5.01914C21.7686 5.71914 22.4566 6.59115 22.4416 7.73515C22.4266 9.79415 20.6676 11.1351 17.9416 11.1351C16.9584 11.1381 15.9834 10.9571 15.0666 10.6021L15.4176 8.35914L15.7696 8.52714C16.5207 8.89714 17.3497 9.08013 18.1866 9.06113C18.522 9.12613 18.8698 9.06214 19.1595 8.88114C19.4492 8.69914 19.659 8.41414 19.7466 8.08414C19.7466 7.64214 19.4106 7.32114 18.4006 6.83314C17.4216 6.36114 16.1216 5.56716 16.1366 4.13316C16.1526 2.19616 17.9416 0.833137 20.4966 0.833137C21.2901 0.828137 22.0778 0.968148 22.8216 1.24415L22.4696 3.41114L22.2436 3.31113ZM10.8636 11.0021L12.4856 1.00214H15.0706L13.4496 11.0021H10.8636ZM4.63861 11.0021L2.63161 3.47413L2.47461 2.86314C2.82831 3.04014 3.16331 3.25213 3.47461 3.49613C4.41601 4.26413 5.22091 5.18614 5.85561 6.22214L5.84761 6.17915L5.89761 6.43815L6.17361 7.81113L8.70761 1.00214H11.4456L7.37661 11.0021H4.63461H4.63861Z" fill="#37415E" fill-opacity="0.5"/>
<path opacity="0.35" fill-rule="evenodd" clip-rule="evenodd" d="M3.47 3.49622C3.1587 3.25222 2.8237 3.04022 2.47 2.86322L2.323 2.30923C1.5927 1.87923 0.8126 1.54023 0 1.30023V0.990234H3.971C4.2091 0.991234 4.4397 1.07322 4.6244 1.22322C4.8092 1.37322 4.9368 1.58223 4.986 1.81523L5.846 6.22223C5.2128 5.18623 4.4096 4.26522 3.47 3.49622Z" fill="#37415E" fill-opacity="0.5"/>
</svg>
