<svg width="16" height="20" viewBox="0 0 16 20" fill="none" xmlns="http://www.w3.org/2000/svg">
<path fill-rule="evenodd" clip-rule="evenodd" d="M14.0352 19.002H1.03516C0.769956 19.002 0.515556 18.897 0.328056 18.709C0.140556 18.522 0.0351562 18.267 0.0351562 18.002V8.976C0.0352562 8.669 0.153458 8.37301 0.365158 8.15001L0.812157 7.75L10.2602 0L11.0352 0.0019989V7.002L11.0242 12.238L1.53815 18.25L13.0282 14.493L13.0352 8.002H15.0352V19.002H14.0352ZM6.96216 7.485C7.08616 7.377 7.23176 7.297 7.38926 7.25C7.54676 7.203 7.71246 7.19 7.87526 7.213C8.03816 7.235 8.19415 7.29201 8.33315 7.38C8.47215 7.467 8.59116 7.58399 8.68116 7.72099C8.80016 8.05499 8.79616 8.41899 8.67216 8.75099C8.54716 9.08199 8.31016 9.359 8.00116 9.532C7.87706 9.64 7.73135 9.72001 7.57375 9.76701C7.41625 9.81401 7.25045 9.826 7.08765 9.804C6.92475 9.782 6.76855 9.72501 6.62955 9.63701C6.49045 9.55001 6.37166 9.43301 6.28116 9.29601C6.16266 8.96201 6.16596 8.59801 6.29066 8.26601C6.41526 7.93501 6.65316 7.658 6.96216 7.485Z" fill="#37415E" fill-opacity="0.5"/>
<path opacity="0.4" fill-rule="evenodd" clip-rule="evenodd" d="M11.0361 8.00195H13.0361L13.0291 14.493L1.53906 18.2499L11.0251 12.2379L11.0361 8.00195Z" fill="#37415E" fill-opacity="0.5"/>
</svg>
