<svg width="15" height="15" viewBox="0 0 15 15" fill="none" xmlns="http://www.w3.org/2000/svg">
<path fill-rule="evenodd" clip-rule="evenodd" d="M3.2277 0.014281C2.812 0.107914 1.95755 0.902633 1.07393 2.01748C0.656729 2.54387 0.338828 3.01301 0.151179 3.37934C-0.0357054 3.74415 -0.0369907 3.7618 0.07999 4.37412C0.589883 7.04338 2.71795 10.1568 5.58118 12.4224C7.32529 13.8025 9.24715 14.731 10.8581 14.9719C11.3346 15.0431 11.4381 15.0076 12.165 14.5234C13.4556 13.6637 14.8156 12.3352 14.9622 11.7908C15.0236 11.5627 14.9148 11.2336 14.6989 10.9947C14.3375 10.5946 12.3259 9.33254 11.4617 8.96371C10.6654 8.62381 10.4246 8.70365 9.69993 9.54799C9.48539 9.798 9.28697 10.0214 9.259 10.0445C9.21814 10.0783 9.13618 10.0572 8.83975 9.93635C7.56151 9.41544 6.47943 8.529 5.69368 7.35916C5.43505 6.97413 5.05204 6.19491 4.94128 5.82844C4.92227 5.76562 4.98794 5.69471 5.36493 5.37097C5.89686 4.91424 6.05157 4.74882 6.14701 4.5347C6.23689 4.33319 6.23567 4.11556 6.14315 3.82917C5.94178 3.2058 5.29468 2.06765 4.42051 0.799237C4.09583 0.328152 3.98326 0.215236 3.72241 0.0990547C3.50947 0.00420548 3.37484 -0.0188642 3.2277 0.014281Z" fill="#37415E"/>
</svg>
