<svg width="17" height="30" viewBox="0 0 17 30" fill="none" xmlns="http://www.w3.org/2000/svg">
<path fill-rule="evenodd" clip-rule="evenodd" d="M7.55327 1.95717L5.59708 3.91427L7.56957 5.88676L9.54207 7.85925V6.47461V5.08996L11.3192 5.07262L13.0963 5.05527L13.1141 3.89875L13.1319 2.74222L11.3533 2.72488L9.57467 2.70753L9.54207 1.3538L9.50946 0L7.55327 1.95717ZM1.68529 7.5442C1.28266 7.66778 0.736414 8.02457 0.525053 8.30213C-0.0445348 9.05034 -0.159182 10.0037 0.222717 10.8163C0.326605 11.0374 0.896648 11.6542 2.3126 13.0781C3.38349 14.1549 4.25965 15.0532 4.25965 15.0744C4.25965 15.0956 4.08527 15.1287 3.87221 15.148C3.12759 15.2155 2.35942 15.7166 2.04965 16.3369C1.96676 16.5028 1.8019 17.0109 1.68314 17.4662C1.56445 17.9215 1.31442 18.8662 1.12757 19.5656C0.229891 22.9263 0.207521 23.0256 0.235433 23.5255C0.283562 24.3879 0.414122 24.5684 2.44668 26.5814C4.37789 28.4941 4.83544 28.8551 5.95029 29.3456C6.89219 29.7601 8.01369 30 9.01004 30C9.64935 30 10.8546 29.7979 11.4659 29.5882C13.6538 28.8375 15.4593 27.0359 16.1836 24.8806C16.6271 23.5608 16.6054 23.9257 16.6336 17.3157C16.6477 14.0158 16.6405 11.1893 16.6176 11.0346C16.5927 10.8657 16.5059 10.6748 16.4004 10.5567C16.0641 10.1803 15.5356 10.2025 14.6408 10.6307C13.6312 11.1137 12.8998 11.8311 12.4128 12.8159C12.0632 13.5229 11.9528 14.0525 11.9362 15.1023C11.9286 15.5836 11.9077 15.9778 11.8896 15.9781C11.8715 15.9785 10.0814 14.2021 7.9115 12.0306C5.7416 9.85907 3.81945 7.98421 3.64011 7.86421C3.03263 7.45766 2.33809 7.34399 1.68529 7.5442Z" fill="#37415E" fill-opacity="0.5"/>
</svg>
