<svg width="24" height="20" viewBox="0 0 24 20" fill="none" xmlns="http://www.w3.org/2000/svg">
<path fill-rule="evenodd" clip-rule="evenodd" d="M7.08861 0.0942106C6.64877 0.365856 6.61251 0.514971 6.60983 2.06328L6.6076 3.34176H3.97661C1.40972 3.34176 1.33848 3.34439 1.05509 3.45042C0.686533 3.58834 0.322785 3.925 0.139848 4.29745L0 4.58227V11.6709V18.7595L0.141772 19.0483C0.319341 19.4098 0.700203 19.7585 1.06765 19.896C1.34466 19.9996 1.3799 20 11.6203 20C21.8606 20 21.8959 19.9996 22.1729 19.896C22.5403 19.7585 22.9212 19.4098 23.0988 19.0483L23.2405 18.7595V11.6709V4.58227L23.1214 4.31887C22.961 3.96414 22.5578 3.58976 22.1867 3.45092C21.9017 3.34429 21.8344 3.34176 19.2639 3.34176H16.6329V2.05816C16.6329 0.687021 16.6113 0.531781 16.3855 0.286617C16.1074 -0.0154595 16.3649 -1.70843e-05 11.6101 0.000185448C7.44456 0.000337346 7.23342 0.00474214 7.08861 0.0942106ZM14.962 2.50667V3.34247L11.6329 3.32945L8.3038 3.31644L8.28988 2.49366L8.27596 1.67087H11.619H14.962V2.50667Z" fill="white"/>
</svg>
