<svg width="22" height="20" viewBox="0 0 22 20" fill="none" xmlns="http://www.w3.org/2000/svg">
<path fill-rule="evenodd" clip-rule="evenodd" d="M7.89274 0.0370236C7.77835 0.069377 6.01703 0.650398 3.97876 1.3282C0.638505 2.43889 0.261218 2.57422 0.155931 2.69929C0.0139457 2.86804 -0.0374038 3.10829 0.0282274 3.29658C0.0550808 3.37358 0.598988 4.20581 1.2369 5.14595L2.39682 6.85523L1.71509 7.86109C1.34016 8.41434 0.809286 9.19743 0.535345 9.60134C0.261404 10.0052 0.0243925 10.4042 0.00867795 10.488C-0.0272805 10.6798 0.0520769 10.926 0.192444 11.0578C0.3244 11.1818 7.87444 13.6997 8.12841 13.7044C8.31662 13.708 8.47491 13.6363 8.59402 13.4936C8.63867 13.4402 9.10752 12.747 9.6359 11.9533C10.1643 11.1595 10.607 10.5101 10.6197 10.5101C10.6324 10.5101 11.0751 11.1595 11.6034 11.9533C12.1318 12.747 12.6007 13.4402 12.6453 13.4936C12.7644 13.6363 12.9227 13.708 13.1109 13.7044C13.3649 13.6997 20.9149 11.1818 21.0469 11.0578C21.1873 10.926 21.2666 10.6798 21.2307 10.488C21.2149 10.4042 20.9779 10.0052 20.704 9.60134C20.4301 9.19743 19.8992 8.41434 19.5242 7.86109L18.8425 6.85523L20.0024 5.14595C20.6403 4.20581 21.1843 3.37358 21.2111 3.29658C21.2767 3.10838 21.2254 2.86804 21.0836 2.69957C20.9786 2.57473 20.5937 2.437 17.1915 1.30652C15.1149 0.616519 13.3473 0.0354518 13.2634 0.015254C13.0595 -0.0339232 12.8175 0.0386876 12.6758 0.191534C12.612 0.260216 12.1286 0.965843 11.6014 1.75956C11.0741 2.55333 10.6324 3.20276 10.6197 3.20276C10.607 3.20276 10.1643 2.55333 9.6359 1.75956C9.10752 0.965843 8.63867 0.272695 8.59402 0.21922C8.42546 0.0173343 8.18415 -0.0453389 7.89274 0.0370236ZM13.3812 5.93676C14.8619 6.42987 16.073 6.84372 16.0726 6.85643C16.0721 6.86914 14.845 7.28872 13.3457 7.78885L10.6197 8.69812L7.89362 7.78885C6.39431 7.28872 5.16724 6.86914 5.16678 6.85643C5.16563 6.8232 10.5874 5.01242 10.6428 5.02758C10.6682 5.03452 11.9005 5.44365 13.3812 5.93676ZM10.0473 13.582C9.62688 14.2092 9.44917 14.4334 9.25842 14.5774C8.9164 14.8356 8.56463 14.9506 8.11972 14.9496C7.77613 14.9489 7.64172 14.9094 5.20177 14.0918C3.795 13.6204 2.61863 13.2347 2.58766 13.2347C2.54426 13.2347 2.53136 13.6677 2.5315 15.1181C2.53164 16.9034 2.53636 17.0092 2.62172 17.1492C2.67127 17.2305 2.75959 17.3269 2.81797 17.3634C2.87639 17.4 4.65532 18.0082 6.77119 18.715L10.6182 20L14.4667 18.7149C16.5833 18.0081 18.3629 17.3999 18.4214 17.3634C18.4797 17.3268 18.5681 17.2305 18.6176 17.1492C18.703 17.0092 18.7077 16.9034 18.7078 15.1181C18.708 13.6773 18.6949 13.2347 18.6522 13.2347C18.6215 13.2347 17.4433 13.6211 16.034 14.0934C13.6035 14.9079 13.4535 14.9521 13.1202 14.9519C12.7075 14.9518 12.4069 14.8614 12.0647 14.6348C11.7771 14.4443 11.6957 14.3443 11.1044 13.4542C10.8552 13.0792 10.6376 12.7725 10.6207 12.7725C10.6039 12.7725 10.3459 13.1368 10.0473 13.582Z" fill="white"/>
</svg>
