<svg width="20" height="20" viewBox="0 0 20 20" fill="none" xmlns="http://www.w3.org/2000/svg">
<path fill-rule="evenodd" clip-rule="evenodd" d="M2.71193 0.0654611C2.16509 0.197853 1.6843 0.568865 1.41982 1.06263C1.35672 1.1804 1.20359 1.61846 1.07948 2.03612C0.955337 2.45378 0.789097 3.01029 0.709948 3.27282C0.000427237 5.62698 0.0176114 5.5619 0.0166567 5.90249C0.0158322 6.19474 0.0330161 6.26621 0.167622 6.53004C0.337332 6.86278 0.613052 7.10769 0.945574 7.22112C1.18172 7.3017 1.65123 7.30317 1.87306 7.22402C2.26867 7.08291 2.61591 6.72383 2.75498 6.31199L2.82771 6.09667L2.87865 6.26859C2.99238 6.65215 3.28173 6.98306 3.66077 7.16301C4.09644 7.36983 4.60756 7.32999 5.0122 7.0577C5.28532 6.87393 5.4874 6.60107 5.57597 6.29663L5.6477 6.04998L5.70966 6.26248C5.82005 6.64082 6.08228 6.96006 6.43793 7.14922C6.6289 7.25075 6.70427 7.2646 7.06713 7.26464C7.41371 7.26473 7.50904 7.24893 7.66574 7.16536C8.05094 6.95993 8.35473 6.57964 8.43549 6.20186L8.46794 6.04998L8.53963 6.26899C8.67602 6.68565 8.91524 6.96987 9.29224 7.1631C9.51237 7.27592 10.0012 7.3184 10.2633 7.2475C10.6835 7.1339 11.1357 6.68426 11.2402 6.27615L11.2942 6.06569L11.363 6.27684C11.559 6.87788 12.0066 7.23813 12.6062 7.27727C13.082 7.30834 13.3574 7.20606 13.6914 6.87406C13.9132 6.65358 13.973 6.5615 14.0437 6.33112L14.1288 6.05376L14.2 6.29849C14.288 6.60116 14.4905 6.87423 14.7632 7.0577C15.1678 7.32999 15.6789 7.36983 16.1146 7.16301C16.5073 6.97655 16.9131 6.48035 16.9164 6.18233C16.9178 6.06274 16.9785 6.14644 17.0455 6.36033C17.1292 6.62707 17.3828 6.92917 17.6729 7.10738C17.9209 7.25982 17.9431 7.26499 18.3455 7.26499C18.8314 7.26499 19.0722 7.17365 19.369 6.87671C19.6541 6.59144 19.7555 6.33364 19.7538 5.8981C19.7525 5.5806 19.7218 5.42963 19.5328 4.81328C19.4121 4.41948 19.1234 3.46267 18.8913 2.68701C18.6593 1.91136 18.4239 1.1867 18.3683 1.07669C18.1152 0.575677 17.5327 0.145131 16.9657 0.0399891C16.8158 0.0121741 14.2631 -0.00205889 9.84924 0.000240945C4.06146 0.00327846 2.92599 0.0136931 2.71193 0.0654611ZM2.45236 8.10074C2.28182 8.18644 1.99517 8.2816 1.77976 8.324L1.40433 8.3979L1.3933 13.2013L1.38224 18.0048L1.11125 18.0067C0.476884 18.0112 0.0665586 18.3564 0.00671952 18.9359C-0.0112452 19.11 0.00498422 19.2103 0.0776677 19.3746C0.201034 19.6536 0.315983 19.7733 0.579856 19.8977L0.796822 20H9.88768H18.9785L19.1986 19.8976C19.698 19.665 19.9133 19.1029 19.6909 18.6123C19.509 18.2111 19.241 18.0443 18.7292 18.0137L18.3931 17.9937L18.3821 13.1958L18.371 8.3979L17.9932 8.32352C17.779 8.28139 17.4717 8.18011 17.2837 8.08963L16.952 7.93012L16.7069 8.05873C16.3009 8.27171 16.0207 8.34513 15.6049 8.3476L15.2253 8.34982L15.2252 9.29362L15.225 10.2374H12.9035H10.582V9.24671V8.25604L10.3108 8.31289C10.1616 8.34413 9.97121 8.36969 9.88768 8.36969C9.80415 8.36969 9.61378 8.34413 9.4646 8.31289L9.19339 8.25604V9.24671V10.2374H6.87186H4.55033L4.5502 9.29362L4.55011 8.34982L4.17051 8.3476C3.76014 8.34522 3.38908 8.24628 3.03799 8.04554C2.93411 7.98618 2.82671 7.94066 2.79933 7.94448C2.77195 7.94826 2.61578 8.0186 2.45236 8.10074ZM9.19339 13.1881V14.7069L7.18646 14.706C4.89925 14.7049 4.92819 14.7089 4.69422 14.3556L4.57202 14.171L4.55931 12.9202L4.54655 11.6694H6.86999H9.19339V13.1881ZM15.225 12.8641C15.225 13.841 15.2129 14.0879 15.1583 14.2186C15.0684 14.4337 14.9759 14.5305 14.7694 14.6253C14.609 14.6989 14.4433 14.7051 12.5889 14.706L10.582 14.7069V13.1881V11.6694H12.9035H15.225V12.8641Z" fill="white"/>
</svg>
