<svg width="22" height="20" viewBox="0 0 22 20" fill="none" xmlns="http://www.w3.org/2000/svg">
<path fill-rule="evenodd" clip-rule="evenodd" d="M0.591627 0.068694C-0.0248611 0.288489 -0.200764 1.0689 0.261128 1.5351C0.481823 1.75783 0.642385 1.79888 1.29301 1.79888C1.61939 1.79888 1.88635 1.81489 1.8863 1.8344C1.88625 1.8539 1.97072 2.79677 2.07394 3.9296C2.30165 6.42818 2.5945 9.69125 2.7847 11.849C2.86221 12.728 2.95923 13.577 3.00033 13.7356C3.17245 14.3999 3.42794 14.8572 3.89069 15.3295C4.16427 15.6087 4.17734 15.6322 4.11479 15.732C3.79523 16.2417 3.63832 16.76 3.63832 17.3058C3.63832 18.0204 3.91427 18.6906 4.41958 19.2034C4.94544 19.737 5.5758 19.9989 6.33723 20C7.50363 20.0017 8.4661 19.3259 8.8929 18.2054C9.03514 17.832 9.07506 17.1001 8.97614 16.6784L8.90678 16.3825H11.344C13.6458 16.3825 13.7794 16.3871 13.7492 16.4653C13.6825 16.6379 13.6291 17.0223 13.6297 17.324C13.6317 18.2153 14.0847 19.046 14.8466 19.5556C15.3227 19.874 15.7455 20.0009 16.3279 20C17.105 19.9988 17.6919 19.754 18.2457 19.2C18.7862 18.6593 19.0253 18.0785 19.0263 17.3039C19.0273 16.506 18.7983 15.9592 18.2239 15.3881C17.9922 15.1577 17.7587 14.9788 17.559 14.8786C16.958 14.5772 17.1211 14.5849 11.353 14.584C5.5428 14.5831 5.87017 14.6007 5.39185 14.2646C5.09881 14.0587 4.78024 13.6381 4.87887 13.5872C4.91272 13.5697 5.41983 13.5301 6.00578 13.4992C6.59173 13.4683 8.48807 13.3589 10.2199 13.2561C11.9517 13.1534 14.4872 13.0047 15.8544 12.9257C19.1867 12.7333 19.3188 12.7214 19.5222 12.5957C19.6134 12.5393 19.7342 12.4283 19.7906 12.3491C19.8636 12.2466 20.1648 11.1153 20.8331 8.43422C21.35 6.36032 21.7726 4.59959 21.772 4.52147C21.7707 4.3386 21.6278 4.02965 21.4827 3.89636C21.1926 3.6296 21.7656 3.64551 12.4453 3.64551C5.62864 3.64551 3.8681 3.63338 3.85267 3.58632C3.84197 3.55379 3.77771 2.89857 3.70986 2.13033C3.64201 1.36209 3.56502 0.665673 3.53874 0.582765C3.47643 0.386076 3.17197 0.113866 2.94328 0.0503702C2.66756 -0.0261936 0.817293 -0.0117998 0.591627 0.068694Z" fill="white"/>
</svg>
